<svg id="color_Line" height="512" viewBox="0 0 256 256" width="512" xmlns="http://www.w3.org/2000/svg" data-name="color Line"><path d="m169.9445 233.5664h-27.8533c-17.0529 0-31.2829-13.5415-31.5429-30.5925a31.1093 31.1093 0 0 1 31.0717-31.5575h61.2338a19.7639 19.7639 0 0 0 19.8856-19.0551 19.546 19.546 0 0 0 -19.5194-19.9949h-70.4v-13.75h69.8949c18.26 0 33.4973 14.5 33.7762 32.7576a33.3121 33.3121 0 0 1 -33.271 33.7924h-61.232a17.5662 17.5662 0 0 0 -17.6857 16.8 17.3438 17.3438 0 0 0 17.3172 17.85h28.325a6.875 6.875 0 0 1 6.875 6.875 6.875 6.875 0 0 1 -6.8751 6.875z" fill="#fca342"/><path d="m33.6614 65.6111 24.5324 90.274a8.2777 8.2777 0 0 0 4.1084 5.1374q.0983.0521.1967.1041a8.2575 8.2575 0 0 0 11.8231-9.4643l-24.5861-90.5814a8.2562 8.2562 0 0 0 -14.7194-2.5851q-.0718.102-.1425.203a8.2676 8.2676 0 0 0 -1.2126 6.9123z" fill="#fedb7f"/><path d="m46.4786 49.373 31.1106 114.09a8.2529 8.2529 0 0 0 6.565 5.9672l.1781.03a8.2616 8.2616 0 0 0 9.3625-10.3081l-31.1281-114.2555a8.2613 8.2613 0 0 0 -13.2811-4.1485q-.08.0673-.1608.1349a8.2564 8.2564 0 0 0 -2.6462 8.49z" fill="#fca342"/><path d="m61.2463 39.911 33.8619 124.2925a8.28 8.28 0 0 0 8.8781 6.0372l.1737-.0185a8.2491 8.2491 0 0 0 7.05-10.3769l-33.8675-124.3471a8.2492 8.2492 0 0 0 -11.2933-5.3887l-.1677.0748a8.28 8.28 0 0 0 -4.6352 9.7267z" fill="#fedb7f"/><path d="m77.2108 35.1152 34.1022 125.2088a8.2614 8.2614 0 0 0 10.9353 5.5369l.1688-.065a8.2624 8.2624 0 0 0 4.9929-9.8759l-34.098-125.1709a8.2626 8.2626 0 0 0 -9.257-5.9876l-.1729.0274a8.2609 8.2609 0 0 0 -6.6713 10.3263z" fill="#f7810b"/><path d="m94.4611 35.4533 31.4489 115.9278a8.2394 8.2394 0 0 0 12.822 4.5144q.1457-.1081.2909-.2169a8.2285 8.2285 0 0 0 2.9764-8.74l-31.422-115.7859a8.2252 8.2252 0 0 0 -6.9786-6.0354q-.1733-.02-.3465-.0388a8.24 8.24 0 0 0 -8.7911 10.3748z" fill="#fca342"/><path d="m139.353 136.8267a8.269 8.269 0 0 0 14.8337 2.4251q.0729-.1078.1444-.2153a8.3 8.3 0 0 0 1.107-6.7983l-26.1458-95.1534a8.2773 8.2773 0 0 0 -4.6194-5.3625q-.0933-.0416-.1867-.0829a8.2476 8.2476 0 0 0 -11.2829 9.7257z" fill="#f99426"/><path d="m160.7753 84.7748-131.7891.6045a8.251 8.251 0 0 0 -8.2137 7.8153l-.0082.1671a8.2783 8.2783 0 0 0 8.2886 8.7032l131.8087-.6046a8.2786 8.2786 0 0 0 8.2081-8.7826l-.01-.1671a8.2506 8.2506 0 0 0 -8.2844-7.7358z" fill="#f7810b"/><path d="m30.5017 118.77 128.9116-.5913a8.3124 8.3124 0 0 0 8.121-6.56l.0348-.1675a8.3316 8.3316 0 0 0 -8.2366-9.9579l-128.9025.5916a8.3321 8.3321 0 0 0 -8.1449 10.034l.0361.1663a8.3118 8.3118 0 0 0 8.1805 6.4848z" fill="#fca342"/><path d="m32.24 85.4687 125.6823-.5765a8.2558 8.2558 0 0 0 8.0488-6.5931l.0435-.2115a8.2587 8.2587 0 0 0 -8.0937-9.9174l-125.7035.1061a8.5268 8.5268 0 0 0 -8.3535 6.8012l-.0391.1922a8.53 8.53 0 0 0 8.4152 10.199z" fill="#f99426"/><path d="m34.0813 135.5176 121.8327-1.0765a8.3087 8.3087 0 0 0 8.0805-6.5554l.0347-.1667a8.325 8.325 0 0 0 -8.2648-9.9511l-121.8238 1.0532a8.3388 8.3388 0 0 0 -8.1169 10.0407l.0361.1664a8.3156 8.3156 0 0 0 8.2215 6.4894z" fill="#f7810b"/><path d="m130.4507 39.0445-91.356 96.3228a8.2857 8.2857 0 0 0 -.6051 10.6582l.1008.1352a8.2545 8.2545 0 0 0 12.5917.7092l91.3945-96.3636a8.2544 8.2544 0 0 0 -1.3744-12.5363l-.14-.0935a8.2856 8.2856 0 0 0 -10.6115 1.168z" fill="#fedb7f"/><path d="m142.8144 50.0879-92.0706 97.0764a8.2551 8.2551 0 0 0 .7532 12.07l.1679.137a8.251 8.251 0 0 0 11.1937-.7339l92.0545-97.0595a8.25 8.25 0 0 0 .1427-11.2142l-.1454-.16a8.2558 8.2558 0 0 0 -12.096-.1158z" fill="#f7810b"/><path d="m151.8924 64.9821-85.8276 90.4971a8.2624 8.2624 0 0 0 2.7636 13.2929l.1616.0681a8.2833 8.2833 0 0 0 9.2237-1.9235l85.7433-90.4082a8.2833 8.2833 0 0 0 1.4323-9.3133l-.0766-.1578a8.2625 8.2625 0 0 0 -13.4203-2.0553z" fill="#f99426"/><path d="m157.8011 82.8337-73.6325 77.6352a8.2689 8.2689 0 0 0 5.2078 13.9175q.1.01.1992.0192a8.2729 8.2729 0 0 0 6.7841-2.5439l73.4636-77.4565a8.273 8.273 0 0 0 2.1814-6.91l-.03-.1978a8.2691 8.2691 0 0 0 -14.1736-4.4637z" fill="#fedb7f"/><path d="m202.7142 116.1162h-34.4922a10.5476 10.5476 0 0 0 1.7584-3.9824l.0366-.1768a10.69 10.69 0 0 0 -2.2158-8.9668 10.9255 10.9255 0 0 0 -.8654-.9365 10.7675 10.7675 0 0 0 3.9835-5.1719l.7178-.7568a10.7011 10.7011 0 0 0 2.8408-8.9932l-.0317-.21a10.6968 10.6968 0 0 0 -6.0267-8.121l.0219-.1056-.61-.125c-.1172-.0471-.2338-.095-.3531-.1384l.9847.158a10.7359 10.7359 0 0 0 -.1445-4.9155 10.8264 10.8264 0 0 0 -.6773-7.564l-.0815-.168a10.749 10.749 0 0 0 -8.0259-5.9131c-.2217-.0341-.4432-.041-.6649-.0611a10.7785 10.7785 0 0 0 -1.9552-11.2768l-.08-.0879-.0732-.0811a10.5057 10.5057 0 0 0 -9.43-3.3917 10.8075 10.8075 0 0 0 -.05-1.52 10.6919 10.6919 0 0 0 -4.6919-7.7207l-.1426-.0957a10.787 10.787 0 0 0 -11.128-.517 10.7194 10.7194 0 0 0 -5.6069-5.8287l-.2139-.0947a10.6521 10.6521 0 0 0 -11.35 1.6846 10.9616 10.9616 0 0 0 -.7969.79l-.3608-1.33a10.6672 10.6672 0 0 0 -9.1187-7.8662l-.3472-.0391a10.6685 10.6685 0 0 0 -9.26 3.6816c-.0829.0969-.1494.2036-.2285.3029a10.7442 10.7442 0 0 0 -10.357-4.2876l-.19.03a10.6012 10.6012 0 0 0 -8.18 6.386 10.56 10.56 0 0 0 -10.2752-.8811l-.1733.0781a10.743 10.743 0 0 0 -6.38 9.157c-.2167-.0836-.4266-.18-.65-.25a10.7379 10.7379 0 0 0 -10.1479 2.02l-.1655.14a10.7855 10.7855 0 0 0 -3.45 11.0605l.799 2.93a11.0079 11.0079 0 0 0 -1.2267-.3062 10.6609 10.6609 0 0 0 -10.66 4.3945l-.1523.2158a10.7313 10.7313 0 0 0 -1.67 8.5673 11.0982 11.0982 0 0 0 -9.76 8.837l-.0215.1045a10.9474 10.9474 0 0 0 2.2847 9.1572c.0731.0889.1564.166.2318.2524a10.7142 10.7142 0 0 0 -5.6151 8.8862l2.4971.125-2.5054.0479a10.8366 10.8366 0 0 0 4.63 9.4141 11.0054 11.0054 0 0 0 -.9206 1.002 10.6931 10.6931 0 0 0 -2.1357 8.9883l.0376.1719a10.7691 10.7691 0 0 0 5.8442 7.35c-.07.0825-.1483.1565-.2163.2415a10.6975 10.6975 0 0 0 -2.1289 8.9658l.04.1846a10.8464 10.8464 0 0 0 10.5889 8.457h.0972l.6711-.0059a10.7922 10.7922 0 0 0 1.7054 9.5l.1084.1455a10.6927 10.6927 0 0 0 7.9561 4.2754c.2124.0117.4243.0186.6362.0186.2857 0 .5687-.0212.8514-.0436a10.55 10.55 0 0 0 3.8752 9.2555l.1787.1465a10.6716 10.6716 0 0 0 6.7617 2.3936 10.88 10.88 0 0 0 3.8663-.7218c.1359.08.2659.1691.4056.2433l.2144.1143c.0678.0356.1385.0593.2067.0935a10.7489 10.7489 0 0 0 6.3241 7.6467l.1572.0654a10.7226 10.7226 0 0 0 4.167.8369 10.8526 10.8526 0 0 0 6.675-2.304 10.7422 10.7422 0 0 0 1.5919 1.0631 10.6833 10.6833 0 0 0 8.6774 6.1344c.0078.001.0977.0088.1055.01l.1.0088q.5222.05 1.0405.05a10.6942 10.6942 0 0 0 7.7944-3.3613l1.3359-1.4086a10.891 10.891 0 0 0 3.5986.6117 11.0528 11.0528 0 0 0 1.1729-.0615l.147-.0156a10.5665 10.5665 0 0 0 8.45-5.9285 10.4694 10.4694 0 0 0 6.4017 2.1277 10.8587 10.8587 0 0 0 3.89-.7217l.1494-.0576a10.7365 10.7365 0 0 0 6.8176-8.8267c.0825.0308.1591.0721.2425.1011a10.6579 10.6579 0 0 0 9.8447-1.501l.2988-.2227a10.6651 10.6651 0 0 0 3.89-11.3945l-.377-1.3893a11.158 11.158 0 0 0 3.3326.5133 10.67 10.67 0 0 0 8.89-4.7568l.1543-.23a10.8381 10.8381 0 0 0 1.5551-3.697 10.8974 10.8974 0 0 0 4.2317-1.8577h41.02a17.0466 17.0466 0 0 1 17.02 17.4365 17.3143 17.3143 0 0 1 -17.3857 16.6133h-61.235a33.609 33.609 0 0 0 -33.5708 34.0957c.2773 18.2266 15.5488 33.0547 34.0425 33.0547h27.853a9.375 9.375 0 0 0 0-18.75h-28.3247a14.8431 14.8431 0 0 1 -14.8184-15.2754 15.123 15.123 0 0 1 15.1865-14.375h61.2314a35.8106 35.8106 0 0 0 35.771-36.33c-.2968-19.4206-16.57-35.2204-36.2758-35.2204zm-85.3042-81.2891a5.6346 5.6346 0 0 1 6.0972-.8867l.1489.0664a5.7525 5.7525 0 0 1 3.2256 3.74l.3041 1.1068-9.372 9.8814-2.2-8.03a5.6335 5.6335 0 0 1 1.7962-5.8779zm-19.3462-5.3037a5.5838 5.5838 0 0 1 4.2808-1.9951 5.8013 5.8013 0 0 1 .6348.0352l.3354.0371a5.6914 5.6914 0 0 1 4.85 4.2061l2.3138 8.5259a10.96 10.96 0 0 0 .3137 1.6929l3 10.9508-9.3209 9.8276-7.5973-28.005a5.7087 5.7087 0 0 1 1.1897-5.2755zm-17.7227.3008a5.7067 5.7067 0 0 1 3.9551-2.5693l.147-.0234a5.8157 5.8157 0 0 1 .9048-.0713 5.7543 5.7543 0 0 1 5.552 4.2461l.8605 3.159a10.7519 10.7519 0 0 0 .2879 1.5422l8.0331 29.6115-11.9413.01-8.517-31.271a5.6848 5.6848 0 0 1 .718-4.6338zm-13.438 2.6416-1.022-2.2812 1.1846 2.209a5.693 5.693 0 0 1 4.7681.0635 5.76 5.76 0 0 1 2.9567 3.2776c.0034.0125.0048.0253.0082.0378l8.16 29.9609-12.0839.01-7.2169-26.49a5.7576 5.7576 0 0 1 3.2453-6.7876zm-16.1659 10.3272.1519-.127a5.7617 5.7617 0 0 1 9.2656 2.8877l5.5017 20.1943-12.1187.01-4.6477-17.0422a5.7747 5.7747 0 0 1 1.8472-5.9228zm-13.8111 17.334.1343-.1914a5.7588 5.7588 0 0 1 9.9733.9771l1.3226 4.85-12.0607.01-.222-.8168a5.7562 5.7562 0 0 1 .8525-4.8289zm-10.6338 15.5507.0205-.0986a6.0443 6.0443 0 0 1 5.9058-4.8027l64.7426-.0548-11.3838 12.0025-53.3491.2446h-.0278a6.03 6.03 0 0 1 -5.9082-7.291zm-5.5282 17.6836 2.5052-.042a5.7467 5.7467 0 0 1 5.7285-5.44l1.79-.0082a11.136 11.136 0 0 0 1.4125.098h.0508l48.5635-.2227-11.032 11.6313-40.7418.1868a5.5264 5.5264 0 0 1 -4.1708-1.7686 5.7813 5.7813 0 0 1 -1.6089-4.3159zm3.9989 18.3907-2.4423.5332 2.4076-.6934a5.7159 5.7159 0 0 1 1.146-4.8027 5.8678 5.8678 0 0 1 4.5669-2.2041l34.5529-.1587-11.1178 11.7224-3.5678.0308-19.8184.0911h-.0264a5.83 5.83 0 0 1 -5.7007-4.5186zm9.2959 21.2656h-.0537a5.8259 5.8259 0 0 1 -5.7036-4.5244l-.0342-.1582a5.726 5.726 0 0 1 1.1421-4.8008 5.8708 5.8708 0 0 1 4.5522-2.2129l15.1327-.1309-11.1851 11.7932zm14.8711 12.4258c-.1069.1128-.2.2361-.3013.353a5.7377 5.7377 0 0 1 -8.0387-1.1364l-.0952-.127a5.78 5.78 0 0 1 .4136-7.4453l91.356-96.3223v-.001a5.7421 5.7421 0 0 1 4.1768-1.792 5.8126 5.8126 0 0 1 3.2236.9766l.1479.1a5.6966 5.6966 0 0 1 2.499 4.1172 5.76 5.76 0 0 1 -.951 3.8591c-.12.1148-.246.2214-.3605.3421zm12.1143 11.4736a5.7718 5.7718 0 0 1 -7.7974.52l-.168-.1377a5.7556 5.7556 0 0 1 -.5215-8.4141l92.0708-97.0762a5.7056 5.7056 0 0 1 4.1826-1.7988h.064a5.67 5.67 0 0 1 4.1772 1.8672l.08.0879 1.851-1.6805-1.7792 1.76a5.77 5.77 0 0 1 -.105 7.8135zm21.31 1.8311a10.98 10.98 0 0 0 -1.0018 1.2264l-4.9525 5.2218a5.8152 5.8152 0 0 1 -6.4531 1.334l-.145-.0605a5.7621 5.7621 0 0 1 -1.9233-9.27l85.8276-90.4971a5.6812 5.6812 0 0 1 4.1572-1.8018 5.8647 5.8647 0 0 1 .9092.07 5.6741 5.6741 0 0 1 4.2954 3.167l.07.1455a5.8149 5.8149 0 0 1 -.9956 6.5039l-4.9968 5.2688a10.9822 10.9822 0 0 0 -1.1589 1.0564zm25.6406 6.5264a5.69 5.69 0 0 1 -4.0859 2.4609l-.1841.02c-.0086.001-.0168 0-.0255 0l5.2925-5.58a5.7619 5.7619 0 0 1 -.9969 3.099zm-13.45 4.8672a5.7791 5.7791 0 0 1 -4.8315 1.7656l-.0937-.0088a5.7691 5.7691 0 0 1 -3.6377-9.709l73.6328-77.6348a5.6454 5.6454 0 0 1 4.1279-1.8105 5.9117 5.9117 0 0 1 1.7769.2773 5.674 5.674 0 0 1 3.9839 4.6572l.0278.1846a5.7365 5.7365 0 0 1 -1.5225 4.8213zm26.978-6.6807-.1714.0664a5.7613 5.7613 0 0 1 -7.627-3.86l-.5252-1.9282 9.2105-9.7112 1.0872 4.0076a10.7431 10.7431 0 0 0 .8407 2.12l.66 2.4221a5.7457 5.7457 0 0 1 -3.4744 6.8832zm16.0029-9.7842-.2842.2109a5.5691 5.5691 0 0 1 -5.2256.79 5.708 5.708 0 0 1 -3.6938-3.9512l-1.8843-6.946 6.2922-6.6342 4.0115-.0354 2.8448 10.4828a5.6924 5.6924 0 0 1 -2.0602 6.0831zm14.72-16.0205-.1309.1953a5.6691 5.6691 0 0 1 -5.74 2.4736 5.5984 5.5984 0 0 1 -4.283-3.2615l10.54-.0931a5.9209 5.9209 0 0 1 -.3855.6857zm9.3364-10.4521-.0352.1689a5.8315 5.8315 0 0 1 -5.6558 4.5684l-18.3788.1624 11.1677-11.7747 7.1047-.0615h.0522a5.8619 5.8619 0 0 1 4.5488 2.1523 5.6961 5.6961 0 0 1 1.1971 4.7841zm3.5337-16.2393-.03.1426a5.83 5.83 0 0 1 -5.6851 4.5713l-.717.0033a11.4356 11.4356 0 0 0 -2.9421-.4144l-2.28.02 9.53-10.0485a5.9118 5.9118 0 0 1 .9385.9174 5.7236 5.7236 0 0 1 1.1864 4.8082zm60.0205 62.5078a30.546 30.546 0 0 1 -21.918 9.1934h-61.2308a20.1593 20.1593 0 0 0 -20.1846 19.2266 19.8442 19.8442 0 0 0 19.8164 20.4238h28.3247a4.375 4.375 0 0 1 0 8.75h-27.853c-15.7783 0-28.8071-12.6191-29.0435-28.1309a28.61 28.61 0 0 1 28.5718-29.02h61.2339a22.3441 22.3441 0 0 0 22.3848-21.4956 22.0461 22.0461 0 0 0 -22.019-22.5537h-37.2106a10.5265 10.5265 0 0 0 .4366-1.4863l.0322-.1543a10.6479 10.6479 0 0 0 -.9981-7.1094h37.2349c16.99 0 31.021 13.5908 31.2769 30.2959a30.5527 30.5527 0 0 1 -8.8539 22.0605z"/></svg>