<svg id="Ball_of_Wool" viewBox="0 0 64 64" xmlns="http://www.w3.org/2000/svg" xmlns:xlink="http://www.w3.org/1999/xlink"><linearGradient id="linear-gradient" gradientUnits="userSpaceOnUse" x1="32" x2="32" y1="64" y2="0"><stop offset=".00066138" stop-color="#ffd255"/><stop offset=".99931793" stop-color="#ff78dc"/></linearGradient><path d="m50.05963135 11.10980225.64929199-1.30010986c.41448975.1116333.84185791.19030762 1.29107666.19030762 2.75683594 0 5-2.24316406 5-5s-2.24316406-5-5-5-5 2.24316406-5 5c0 1.59057617.76068115 2.99359131 1.92193604 3.91003418l-.65203857 1.30578613c-3.13549805-1.41894531-6.61035156-2.21582031-10.26989746-2.21582031-7.0413208 0-13.40740967 2.93048096-17.95544434 7.63049316l-4.87756348-4.87756348c.52398682-.79052734.83300781-1.7355957.83300781-2.75292969 0-2.75683594-2.24316406-5-5-5s-5 2.24316406-5 5 2.24316406 5 5 5c1.01733398 0 1.96240234-.309021 2.75292969-.83300781l4.95275879 4.95275879c-3.56298828 4.32128906-5.70568848 9.85516357-5.70568848 15.88024902 0 5.42169189 1.74029541 10.44152832 4.68389893 14.54211426-1.67468262-.14825439-3.76678467.02026367-5.12237549 1.40124512-1.47021484 1.49755859-1.64160156 3.97802734-.51025391 7.37304688.49365234 1.48046875.45019531 2.59375-.1328125 3.40234375-1.47363281 2.04492188-6.36669922 2.28125-9.91845703 2.28125-.55224609 0-1 .44775391-1 1s.44775391 1 1 1c4.59765625 0 9.56445312-.36962891 11.54101562-3.11181641.97216797-1.34863281 1.109375-3.09960938.40771484-5.20458984-.60107422-1.80322266-1.08251953-4.19287109.03808594-5.33740234 1.31066895-1.33709717 4.45361328-.76641846 5.64343262-.41119385 4.57116699 4.95458984 11.11297607 8.06500244 18.36975098 8.06500244 13.78515625 0 25-11.21484375 25-25 0-9.41436768-5.23260498-17.62689209-12.94036865-21.89019775zm1.94036865-9.10980225c1.65429688 0 3 1.34570312 3 3s-1.34570312 3-3 3-3-1.34570312-3-3 1.34570312-3 3-3zm-44 6c0-1.65429688 1.34570312-3 3-3s3 1.34570312 3 3-1.34570312 3-3 3-3-1.34570312-3-3zm21.86279297 46.40478516c-.06872559-.00421143-.1272583.01904297-.19152832.0279541-1.10046387-.42913818-2.15948486-.94030762-3.17053223-1.52661133 6.29956055-.45477295 20.89318848-3.54327393 34.45941162-21.21765137.02453613.43438721.03985596.87115479.03985596 1.31152344 0 .67919922-.03552246 1.34997559-.09350586 2.0144043-11.13299561 19.78424072-30.84881592 19.40008545-31.04370117 19.39038086zm-7.82781982-4.87176514c1.31390381-.3425293 3.26635742-.89489746 5.64581299-1.69146729.01483154.00067139.02844238.00952148.04333496.00952148.22314453 0 .44775391-.07421875.63378906-.22705078.00537109-.00439453.00732422-.01098633.01257324-.01544189.99243164-.34063721 2.04870605-.72174072 3.15710449-1.14562988.02166748-.00665283.04187012-.01635742.06323242-.02459717 1.37121582-.5255127 2.81512451-1.11273193 4.3125-1.77331543 5.10827637-2.25366211 11.40698242-5.63525391 16.93438721-10.31866455.16778564-.0769043.30236816-.19628906.40405273-.34594727 2.52215576-2.1817627 4.8637085-4.64208984 6.84613037-7.39788818.21002197.72393799.3850708 1.46209717.52374268 2.21331787-16.47674561 22.71002197-35.33581543 22.2197876-36.97076416 22.13189697-.55731201-.44677734-1.0927124-.91900635-1.605896-1.41473389zm1.09667969-34.06054688c.80670166-.68536377 1.66119385-1.31494141 2.55755615-1.88543701-.5168457 2.13922119-1.20648193 5.65991211-1.40649414 9.8548584-.4050293 8.5098877 1.44067383 15.93365479 5.3482666 21.57312012-.55419922.20397949-1.09533691.39855957-1.61706543.58013916-10.01275635-12.87591553-5.38995361-28.53692627-4.88226318-30.12268066zm7.41247559-4.22509766c-1.5411377 4.78820801-4.71856689 18.41571045 3.15582275 32.1628418-.72540283.30584717-1.43328857.59222412-2.12731934.86486816-8.86639404-12.23120117-4.11645508-29.7855835-3.4508667-32.04168701.7835083-.37420654 1.59320068-.7010498 2.42236328-.98602295zm5.14447021-1.13122559c.52087402 1.73913574 2.05957031 7.54156494 1.24853516 13.03222656-3.55792236-2.50012207-5.5425415-4.90234375-5.82824707-5.26062012.5567627-3.75439453 1.4574585-6.41516113 1.78942871-7.31036377.91162109-.20739746 1.84143066-.3661499 2.7902832-.46124268zm17.77850342 20.99420166c-.49359131.46588135-.9956665.92205811-1.50842285 1.36578369-11.3034668.85516357-20.02581787-7.12646484-21.30566406-8.3671875-.0020752-1.23901367.05065918-2.42498779.14477539-3.54431152 2.8994751 3.0559082 10.53155518 9.70343018 22.66931152 10.54571533zm-.08013916-15.1887207c.0592041.23199463 1.98236084 7.95489502-.95269775 13.090271-.92022705-.09796143-1.81237793-.23175049-2.67596436-.39666748 1.76916504-5.59130859 1.3671875-11.73095703.99462891-14.74462891.92767334.6204834 1.80792236 1.30603027 2.6340332 2.05102539zm1.95812988 13.30456543c-.05151367-.00946045-.09765625-.03308105-.1517334-.03430176-.19525146-.00457764-.38439941-.01800537-.57739258-.02587891 1.67712402-3.56512451 1.60046387-7.78631592 1.26330566-10.61242676 1.40283203 1.73284912 2.55810547 3.67254639 3.41461182 5.76593018-.04150391.04296875-.0916748.07421875-.12591553.12579346-1.13476562 1.70220947-2.42651367 3.2902832-3.82287598 4.78088379zm-19.79968262 13.37915039c-.77648926-1.33953857-1.44812012-2.68127441-2.01293945-4.0166626 1.44500732.85980225 3.4019165 1.75598145 5.76324463 2.22576904-1.26855469.64581299-2.52276611 1.24060059-3.75030518 1.79089355zm6.85272217-3.46087646c-5.359375-.07098389-9.18231201-3.09515381-10.07421875-3.87097168-.19512939-.628479-.36999512-1.25286865-.52655029-1.87335205 2.21539307 1.76062012 6.20605469 3.9395752 12.66143799 4.52502441-.68493652.42132568-1.37213135.82769775-2.06066895 1.21929932zm4.89978027-3.06591797c-12.00787354-.17181396-16.09741211-6.07104492-16.14361572-6.1395874-.01989746-.0302124-.05084229-.04656982-.07336426-.07391357-.15234375-1.01086426-.25720215-2.00109863-.32672119-2.96905518 3.04052734 2.56207275 9.89367676 7.35070801 18.68548584 7.6204834-.70513916.53686523-1.4175415 1.06164551-2.14178467 1.56207275zm-1.74517822-18.184021c.14355469.07177734.29589844.10546875.44628906.10546875.3671875 0 .71972656-.20214844.89550781-.55273438l1.82580566-3.65588379c.35235596 2.72680664.84594727 8.95080566-.91998291 14.38189697-1.74591064-.44708252-3.36303711-1.01318359-4.84521484-1.65350342 1.61938477-7.79992676.3125-13.62762451-.456604-16.07507324 1.70117188.33874512 3.33312988.86865234 4.87750244 1.56115723l-2.27056885 4.546875c-.24707031.49414062-.046875 1.09472656.44726562 1.34179688zm-5.28686523-7.78186035c.36340332.93688965 2.47705078 6.96209717.82232666 15.53033447-.828125-.42053223-1.60784912-.85772705-2.33618164-1.30322266 1.11962891-5.78497314-.31408691-11.90698242-1.00799561-14.33331299.08563232-.00091553.17016602-.00646973.25598145-.00646973.76464844 0 1.5201416.03942871 2.26586914.1126709zm-19.97290039 8.59436035c.00341797.00341797.00811768.0043335.01153564.00769043-1.08685303 5.95587158-1.79498291 17.46789551 5.70141602 27.55395508-.78259277.25311279-1.51043701.47833252-2.16955566.67376709-8.19848633-9.02386475-5.69293213-25.37109375-5.65814209-25.5881958.58166504-.98626709 1.23339844-1.92596436 1.9508667-2.81109619zm-4.53027344 8.42047119c-.04431152 5.71673584.88366699 14.26391602 5.94433594 20.41595459-.50811768.13568115-.92700195.24230957-1.23980713.31890869-3.40612793-4.01190186-5.46722412-9.199646-5.46722412-14.86236572 0-2.02929688.26696777-3.99688721.76269531-5.87249756zm22.23730469 28.87249756c-.89788818 0-1.78222656-.05725098-2.65362549-.15789795 6.25061035-1.15576172 16.5512085-4.67767334 24.38299561-15.31738281-3.12457275 8.99688721-11.68182373 15.47528076-21.72937012 15.47528076z" fill="url(#linear-gradient)"/></svg>