<svg enable-background="new 0 0 512 512" height="512" viewBox="0 0 512 512" width="512" xmlns="http://www.w3.org/2000/svg" xmlns:xlink="http://www.w3.org/1999/xlink"><linearGradient id="SVGID_1_" gradientUnits="userSpaceOnUse" x1="31.85" x2="480.15" y1="480.137" y2="31.836"><stop offset="0" stop-color="#f3a55d"/><stop offset=".2223" stop-color="#f4ab5d"/><stop offset=".5119" stop-color="#f7bb5c"/><stop offset=".8375" stop-color="#fbd65b"/><stop offset="1" stop-color="#fee65a"/></linearGradient><g id="_x30_3_Candy"><path d="m31.823 480.11c12.488 12.484 30.843 19.037 50.328 15.155 23.288 18.287 56.322 16.185 77.164-4.657 11.059-11.062 27.244-53.87 35.917-78.422 62.858 24.419 132.897 8.734 179.3-37.669 45.192-45.192 62.603-115.12 37.669-179.3 24.552-8.672 67.36-24.858 78.422-35.917 20.962-20.962 22.668-54.076 4.659-77.138 3.619-18.164-1.9-37.095-15.102-50.296-13.237-13.236-32.196-18.773-50.342-15.162-23.02-18.064-56.138-16.353-77.149 4.661-11.293 11.3-28.059 56.2-35.91 78.47-61.956-23.998-132.575-9.102-179.307 37.621-47.795 47.795-60.971 118.94-37.647 179.234-24.547 8.713-67.45 24.992-78.444 35.983-20.962 20.962-22.672 54.076-4.659 77.139-3.621 18.16 1.898 37.092 15.101 50.298zm11.123-11.124c-15.295-15.301-15.863-40.647 0-56.509 3.776-3.776 19.374-15.706 80.934-53.271 1.874 2.432 8.243 10.026 13.536 15.31 5.815 5.819 14.365 12.808 15.318 13.543-27.452 45.132-46.753 74.508-53.225 80.981-15.871 15.871-41.195 15.297-56.563-.054zm105.245 10.498c-12.855 12.846-31.86 15.664-47.586 8.556 3.593-2.239 6.989-4.837 10.028-7.876 7.583-7.583 26.092-35.539 54.997-83.035 4.916 3.159 9.986 6.019 15.18 8.632-15.336 43.655-27.343 68.442-32.619 73.723zm.167-116.293c-28.235-28.332-45.57-68.928-43.938-112.842l157.268 157.267c-42.439 1.585-82.91-14.005-113.33-44.425zm-21.839-186.335 208.634 208.637c-15.607 9.593-33.692 16.699-53.272 20.069l-175.407-175.407c3.213-18.723 9.376-35.854 20.045-53.299zm103.65-70.399 175.409 175.409c-3.318 19.391-10.374 37.49-20.068 53.271l-208.64-208.635c15.836-9.662 32.837-16.529 53.299-20.045zm249.33 41.718c-5.28 5.277-30.067 17.284-73.724 32.619-2.604-5.178-5.455-10.232-8.603-15.133 71.585-43.709 80.187-52.221 83.007-55.044 3.031-3.029 5.62-6.415 7.855-9.994 7.084 15.752 4.278 34.74-8.535 47.552zm-10.444-105.186c15.311 15.312 15.85 40.656 0 56.505-3.78 3.776-19.378 15.71-80.965 53.29-1.998-2.578-8.508-10.333-13.559-15.383-5.693-5.693-14.356-12.787-15.264-13.49 27.452-45.132 46.753-74.508 53.225-80.981 15.769-15.768 41.092-15.406 56.563.059zm-105.244-10.502c12.853-12.85 31.855-15.668 47.585-8.556-3.593 2.239-6.989 4.838-10.028 7.876-7.583 7.583-26.092 35.539-54.997 83.036-4.932-3.158-9.998-6.005-15.168-8.595 15.169-43.378 27.435-68.585 32.608-73.761zm-.403 116.038c28.584 28.584 45.86 68.751 44.224 113.147l-157.268-157.267c44.403-1.663 84.849 15.925 113.044 44.12zm-214.814.054c4.774-4.774 9.862-9.021 15.079-13.025l212.769 212.764c-4.029 5.234-8.287 10.326-13.035 15.074-4.748 4.749-9.84 9.005-15.074 13.035l-212.764-212.768c4.005-5.218 8.251-10.306 13.025-15.08zm-116.092 215.217c5.235-5.231 30.011-17.246 73.725-32.685 2.592 5.18 5.441 10.256 8.604 15.197-71.587 43.711-80.189 52.223-83.009 55.046-3.031 3.031-5.62 6.416-7.855 9.994-7.083-15.752-4.277-34.74 8.535-47.552z" fill="url(#SVGID_1_)"/></g></svg>