<svg id="Capa_1" enable-background="new 0 0 512 512" height="512" viewBox="0 0 512 512" width="512" xmlns="http://www.w3.org/2000/svg"><path d="m510.681 140.691c-3.338-40.839-42.545-51.544-76.444-57.482-2.818-3.688-2.027-9.239-2.436-14.223.035-10.219-2.416-21.445-8.002-30.535 1.159-4.29.416-9.256-3.345-14.007-44.197-53.266-143.308-12.39-127.395 54.603 2.962 14.767 9.572 28.642 11.182 43.037.661 7.29-.639 12.722-5.045 18.203-65.095 53.272-116.021 121.073-178.721 176.55-37.092-17.821-74.11-28.778-104.217 8.074-41.413 46.06 8.71 112.28 62.862 112.151 4.423 3.179 4.135 10.425 5.173 16.078 25.643 114.984 191.981 43.202 116.361-59.162 8.254-11.318 22.863-16.836 31.358-28.915 8.311-12.032-10.714-24.797-18.698-12.561-11.925 15.123-44.682 29.255-29.705 53.107 57.125 78.113-49.412 119.396-78.093 57.171-5.82-27.871-1.856-44.554-37.053-46.951-40.624-8.388-66.824-58.746-26.536-86.242 24.905-20.163 51.393 1.901 77.434 10.356 21.594.875 83.656-75.261 104.293-92.885 30.074-31.183 60.832-61.78 94.453-88.75 4.517-5.007 8.362-11.265 10.511-18.137 12.795-31.812-26.559-73.116.555-95.88 17.938-18.515 50.775-20.798 67.66.151 4.083 4.553 8.947 6.082 13.442 5.577 4.351 9.09 3.232 20.312 4.301 30.975 2.597 31.453 50.856 18.4 67.051 40.697 11.306 13.901 9.963 32.667.799 47.4-13.891 25.312-48.146 25.534-71.892 15.046-10.988-3.827-21.25-17.006-33.093-7.659-37.42 28.976-66.361 68.022-97.587 103.278-12.298 54.616 97.27-66.459 108.598-72.304 51.28 29.905 128.3-1.843 122.229-66.761zm-310.084 253.209c-.024-.032-.046-.064-.07-.096-.025-.144.036-.044.07.096z" fill="#ffd983"/></svg>