<svg id="Layer_1" enable-background="new 0 0 512 512" height="512" viewBox="0 0 512 512" width="512" xmlns="http://www.w3.org/2000/svg" xmlns:xlink="http://www.w3.org/1999/xlink"><linearGradient id="SVGID_1_" gradientUnits="userSpaceOnUse" x1="106.416" x2="405.585" y1="398.585" y2="99.416"><stop offset="0" stop-color="#f6c118"/><stop offset=".805" stop-color="#f47c20"/></linearGradient><path d="m345.506 437.518c-15.715.001-30.663-7.254-44.588-14.011-14.067-6.825-28.604-13.879-44.918-15.113-16.313 1.234-30.851 8.288-44.918 15.113-25.167 12.212-53.693 26.052-84.01-4.266-20.205-20.205-23.405-52.046-8.778-87.356 10.747-25.944 30.472-51.729 54.12-70.744 18.6-14.956 48.2-32.784 83.586-32.784s64.986 17.828 83.587 32.784c23.646 19.015 43.373 44.8 54.119 70.744 14.626 35.311 11.427 67.151-8.778 87.356-13.543 13.544-26.734 18.276-39.422 18.277zm-88.511-54.117c21.45 1.414 39.183 10.019 54.835 17.613 26.132 12.679 38.4 17.566 55.419.549 18.034-18.034 8.357-48.046 3.359-60.111-17.548-42.368-66.356-88.096-114.608-88.096s-97.06 45.728-114.609 88.096c-4.998 12.065-14.675 42.077 3.359 60.111 17.018 17.02 29.287 12.132 55.418-.549 15.653-7.595 33.387-16.199 54.836-17.613.329-.025.663-.011.995-.038.345.034.667.013.996.038zm59.54-179.283c-5.121 0-10.052-1.032-14.656-3.066-24.318-10.743-32.496-46.188-18.617-80.693 11.037-27.439 32.956-45.876 54.544-45.876 5.12 0 10.051 1.031 14.654 3.065 24.319 10.744 32.497 46.188 18.618 80.693-11.037 27.44-32.956 45.877-54.543 45.877zm21.271-104.636c-9.309 0-23.459 10.586-31.351 30.206-9.269 23.045-4.526 44.054 5.527 48.496 1.421.628 2.91.934 4.553.934 9.308 0 23.458-10.587 31.35-30.207 9.269-23.045 4.526-44.054-5.527-48.496-1.422-.628-2.911-.933-4.552-.933zm87.892 189.37c-10.925 0-20.511-3.717-27.722-10.749-19.185-18.708-15.144-54.841 9.198-82.261 14.644-16.495 33.902-26.343 51.516-26.343 10.926 0 20.512 3.717 27.723 10.749 19.184 18.709 15.144 54.842-9.199 82.261-14.644 16.495-33.903 26.343-51.516 26.343zm32.992-94.353c-10.42 0-22.996 6.875-32.82 17.94-16.248 18.303-18.543 39.862-10.439 47.765 2.481 2.42 5.936 3.647 10.268 3.647 10.42 0 22.996-6.875 32.82-17.94 16.249-18.303 18.543-39.862 10.439-47.765-2.482-2.419-5.936-3.647-10.268-3.647zm-263.223 9.619c-.001 0-.002 0-.003 0-21.587-.003-43.507-18.439-54.543-45.877-13.878-34.504-5.7-69.948 18.618-80.693 4.604-2.034 9.535-3.065 14.655-3.065 21.587 0 43.507 18.437 54.544 45.876 13.878 34.505 5.7 69.95-18.619 80.693-4.603 2.034-9.533 3.066-14.652 3.066zm-21.273-104.636c-1.642 0-3.131.305-4.552.933-10.053 4.442-14.796 25.451-5.527 48.496 7.891 19.619 22.042 30.206 31.351 30.207h.001c1.64 0 3.128-.306 4.55-.934 10.054-4.442 14.797-25.451 5.527-48.496-7.891-19.62-22.042-30.206-31.35-30.206zm-87.893 189.37s.001 0 0 0c-17.614 0-36.872-9.848-51.515-26.343-24.342-27.42-28.383-63.553-9.199-82.261 7.211-7.032 16.797-10.749 27.722-10.749 17.614 0 36.872 9.848 51.515 26.343 24.342 27.42 28.383 63.553 9.199 82.261-7.21 7.031-16.798 10.749-27.722 10.749zm-32.992-94.353c-4.332 0-7.787 1.228-10.268 3.647-8.104 7.902-5.809 29.462 10.44 47.765 9.824 11.065 22.399 17.94 32.82 17.94 4.332 0 7.787-1.228 10.268-3.647 8.104-7.902 5.809-29.462-10.44-47.765-9.823-11.065-22.399-17.94-32.82-17.94z" fill="url(#SVGID_1_)"/></svg>