<?xml version="1.0" encoding="UTF-8"?>
<svg id="Layer_1" xmlns="http://www.w3.org/2000/svg" version="1.1" viewBox="0 0 200 50">
  <!-- Generator: Adobe Illustrator 29.5.0, SVG Export Plug-In . SVG Version: 2.1.0 Build 137)  -->
  <defs>
    <style>
      .st0 {
        fill: #50321f;
      }
    </style>
  </defs>
  <path class="st0" d="M179.28,47.33c-2.33,0-4.91-.28-7.69-.83-2.4-.48-5.1-.72-8.04-.72-7.26,0-13.6,1.47-13.66,1.49h-.14c-.14.01-.28.01-.41.01-1.33,0-2.37-.36-3.06-1.08-.67-.7-1-1.7-.95-2.98.21-4.24,12.8-4.56,16.65-4.56,5.52,0,11.03.56,14.75,1.5.86.21,1.68.32,2.48.32,4.76,0,7.51-3.85,7.68-7.47-.06-2.01-.91-3.34-1.91-4.87-.48-.73-.95-1.47-1.42-2.36-.79-1.38-1.66-2.55-2.48-3.69-1.99-2.71-3.87-5.28-3.71-9.46-.21-3.1.81-6.05,2.89-8.28,2.09-2.25,5-3.54,7.97-3.54,2.74,0,5.25,1.07,7.26,3.09,2.5,2.34,3.48,6.56,2.37,10.25-.88,2.98-2.98,4.96-5.71,5.43-.2.03-.39.06-.59.06-1.28,0-2.44-.73-3.06-1.9-.62-1.17-.55-2.55.18-3.59l.03-.04.03-.04c1.64-1.78,2.3-3.48,1.78-4.63-.32-.74-1.12-1.21-2.08-1.21-1.56,0-3.2,1.25-3.4,4.06-.04,4.27,2.2,6.85,4.59,9.57,2.72,3.13,5.54,6.36,5.07,12.21-.63,8.65-5.98,13.22-15.44,13.22h0v.03Z"/>
  <path class="st0" d="M81.36,14.21c.17,3.58-.36,7.34-1.08,10.82-2.25,10.98-8.89,17.67-14.95,6.72-5.19,9.49-11.38,6.57-14.15-6.68-.88-4.69-2.3-8.44-2.09-10.95.36-4.3,6.46-4.86,7.37-.04.52,2.71.36,7.79,2.71,13.06.18.39.58.22.65,0,.67-2.4,1.09-5.81,1.81-10.49.56-5.19,7.68-4.52,8.1-.22.32,3.24,1.04,7.71,1.67,10.71.06.29.59.42.76,0,1.09-2.7,2.13-6.96,1.84-12.87-.25-4.93,7.09-4.45,7.37-.06Z"/>
  <path class="st0" d="M153.4,30.59c0,3.54-4.93,6.67-9.22,6.67-8.45-1.15-8.02-9.38-7.54-19.09-3.17.2-5.87-.88-5.69-3.43,0-2.78,1.22-3.78,5.85-3.94.17-6.56.49-8.59,3.62-8.55,4.91.08,3.78,4.11,3.62,8.49,2.74-.36,6.96-.41,7.08,3.37,0,3.07-1.04,3.72-7.31,4,.06,7.81-.98,8,.46,11.76,1.11-.06,1.74-.35,2.04-.81,1.47-3.58,7.2-2.34,7.08,1.5v.03Z"/>
  <path class="st0" d="M167.59,10.69c6.44,0,9.87,5.17,9.87,13.76-.48,4.21.79,12.56-4.65,12.83-6.64-.58-1.98-9.24-2.72-13,0-4.11-.81-6.2-2.5-6.2-2.71-.29-3.82,3.28-4.7,5.28,0,2.86.07,9.34-.18,10.68-.42,4.55-7.43,4.16-7.31-.41.44-6.89-.38-20.31-.45-27.33,0-2.09,1.45-3.89,3.48-3.89,3.54,0,4.11,2.67,4.11,9.63,1.68-.87,3.37-1.33,5.05-1.33h0Z"/>
  <path class="st0" d="M38.5,13.12c-7.02,0-12.3,5.63-12.3,12.76-.15,9.59,8.87,14.61,16.13,8.65.81,4.94,7.36,4.3,7.43-.24-1.49-11.15.38-21.87-11.26-21.18h0ZM35.86,18.72c.69-.08,1.33.49,1.43,1.31.1.8-.38,1.53-1.07,1.61-.69.08-1.33-.49-1.43-1.31-.1-.8.38-1.53,1.07-1.61ZM36.27,29.99c-.36-.8-.81-1.28-1.31-1.6-.48-.32-1.11-.55-1.59-.66-1.04-.24-1.68-.6-1.64-1.94.07-2.34,2.89-2.95,4.67-3.48,1.19-.24,2.34-.52,3.14.1,1.04.81.79,1.45.9,3.09.24,3.13-2.65,7.89-4.21,4.49h.03ZM40.86,19.63c-.36.87-1.22,1.35-1.91,1.07-.7-.28-.97-1.22-.62-2.11.36-.87,1.22-1.35,1.91-1.07.7.28.97,1.22.62,2.11ZM42.81,26.55c-.8.1-1.53-.38-1.61-1.07-.08-.69.49-1.33,1.31-1.43.8-.1,1.53.38,1.61,1.07.08.69-.49,1.33-1.31,1.43ZM43.59,22.47c-.76.56-1.74.52-2.19-.08s-.2-1.56.56-2.12c.76-.56,1.74-.52,2.19.08s.2,1.56-.56,2.12Z"/>
  <path class="st0" d="M120.65,13.12c-7.02,0-12.3,5.63-12.3,12.76-.15,9.59,8.87,14.61,16.13,8.65.81,4.94,7.36,4.3,7.43-.24-1.49-11.15.38-21.87-11.26-21.18h0ZM118.01,18.72c.69-.08,1.33.49,1.43,1.31.1.8-.38,1.53-1.07,1.61-.69.08-1.33-.49-1.43-1.31-.1-.8.38-1.53,1.07-1.61ZM118.42,29.99c-.36-.8-.81-1.28-1.31-1.6-.48-.32-1.11-.55-1.59-.66-1.04-.24-1.68-.6-1.64-1.94.07-2.34,2.89-2.95,4.67-3.48,1.19-.24,2.34-.52,3.14.1,1.04.81.79,1.45.9,3.09.24,3.13-2.65,7.89-4.21,4.49h.03ZM123.01,19.63c-.36.87-1.22,1.35-1.91,1.07-.7-.28-.97-1.22-.62-2.11.36-.87,1.22-1.35,1.91-1.07.7.28.97,1.22.62,2.11ZM124.96,26.55c-.8.1-1.53-.38-1.61-1.07s.49-1.33,1.31-1.43c.8-.1,1.53.38,1.61,1.07s-.49,1.33-1.31,1.43ZM125.74,22.47c-.76.56-1.74.52-2.19-.08-.45-.6-.2-1.56.56-2.12.76-.56,1.74-.52,2.19.08s.2,1.56-.56,2.12Z"/>
  <path class="st0" d="M93.58,10.93c-13.11-.35-10.54,11.99-10.68,21.35,0,10.61-.06,14.28,3.89,14.28,2.15,0,3.83-1.45,3.83-3.72,0-1.68-.29-6.16-.29-7.26,19.51,6.68,21.44-24.33,3.24-24.66h.01ZM96.9,29.44c-2.58.95-5.66-.88-6.85-4.13-1.19-3.23-.07-6.63,2.51-7.58,2.58-.95,5.66.88,6.85,4.13,1.19,3.23.07,6.63-2.51,7.58Z"/>
  <path class="st0" d="M26.68,15.22c-.38-8.41-6.35-13.49-15.33-13.08-3.09.39-8.03-.65-8.02,3.9l.52,27.28c.08,2.04,1.67,3.76,3.76,3.66,4.96,0,3.17-6.81,3.33-9.85,8.94-.86,15.89-3.75,15.74-11.9ZM10.72,20.11l-.63-11.19c.88-.34,2.51-.44,3.55-.44,3.92,0,7.1,2.72,7.1,6.08s-3.17,6.08-7.1,6.08c-1.04,0-2.02-.2-2.91-.53h-.01Z"/>
</svg>