<?xml version="1.0" encoding="UTF-8"?>
<svg id="Layer_1" xmlns="http://www.w3.org/2000/svg" version="1.1" viewBox="0 0 64 64">
  <!-- Generator: Adobe Illustrator 29.5.0, SVG Export Plug-In . SVG Version: 2.1.0 Build 137)  -->
  <defs>
    <style>
      .st0 {
        fill: #ffe1a5;
      }

      .st1 {
        fill: #50321f;
      }
    </style>
  </defs>
  <path class="st1" d="M27.47,21.63c0-.98.75-1.68,1.73-1.66.96.01,1.73.78,1.71,1.71-.01.93-.81,1.73-1.73,1.73-.99,0-1.73-.78-1.73-1.78"/>
  <path class="st0" d="M57.78,11.23c-2.1-3.06-4.34-8.52-8.28-8.75-5.05.74-6.75,5.38-2.81,9.68,5.85,6.4,8.12,14.97,5.78,22.57-2.35,9.03-12.52,17.77-22.34,17.78-7.6.35-20.38-7.78-17.5-17.23,20.37-6.53,7.14-17.06,14.94-19.3,2.71.06,7.8,6.28,10.3,6.4,1.01-.03,1.25,1.35,1.94,2,4.6-.03,1.2,6.45-1.34,7.63-2.58,1.54-5.01.6-7.74.56-4.84-.34-9.79,7.19-5.94,10.68,4.91,4.45,14.16-1.26,18.33-6.4,3.71-4.71,4.23-10.02,2.91-15.41-4.01-14.08-13.09-16.71-22.07-14.89C14.22,8.52,5.4,15.94,3.32,26c-6.57,31.72,27.41,39.91,41.56,31.63,14.14-8.28,22.25-31.04,12.89-46.4Z"/>
  <path class="st1" d="M58.05,10.87c-1.63-2.78-2.95-4.99-5.43-7.53-3.04-3.11-8.5-.1-8.37,4.3.11,3.9,3.86,5.78,5.33,9.13,7.07,11.91,2.23,26.43-10.02,32.79-9.33,5.25-20.26,2.29-25.74-7.47-1.14-1.91-1.61-4.2-.86-6.57.04-.09.06-.18.26-.23,19.62-6.07,7.87-17.95,14.14-18.88.59-.1,1.23.14,1.44.25,3.31,1.7,5.7,5.44,9.53,6.13.66,1.08.38,2.24,2.84,2.01,2.7,5.09-7.18,12.72-11.87,2.85-.58,1.91,2.26,3.39.05,4.11-.15.06-.33.11-.49.18-.2.06-1.08.49-1.3.61-9.74,5.87-4.24,19.2,10.33,9.82C55.27,33.09,48.31.6,22.95,5.68,3.01,10.29-2.3,31.69,4.59,46.2c4.24,9.44,16.83,16.41,26.69,15.69,24.54.2,38.53-30.15,26.78-51.02ZM44.22,57.23c-13.16,7.49-31.67,2.01-38.47-11.69C-1.04,31.4,5.13,10.5,25.12,6.71c19.12-3.28,29.86,24.16,11.53,34.68-2.2,1.25-4.79,2.11-7.77,2.41-6.69.44-4.36-8.3-.24-10.19,3.59-1.38,7.52,2.05,10.91-.69,3.76-2.33,4.98-7.48,2.65-11.16-.31-.54-.7-.64-1.24-.58-6.23,1.48-10.07-10.1-16.03-5.5-3.41,3.04.4,8.15-2.09,11.69-1.74,2.89-5.63,4.54-8.6,5.82-.51.2-.64-.04-.71-.45-1.58-6.73-.24-15.39,7.39-17.4.08-.03.15.04.11.08-2.58,3.16-.94,7.82-3.78,10.73,5.67-3.46.3-10.87,10.13-12.51-12.92-2.41-19.11,9.32-15.28,20.41.06.15-.04.23-.11.31-1.64,3.15-.34,7.05.71,8.78,8.24,13.54,21.75,12.02,30.7,5.63,11.32-8.08,16.01-25.22,3.2-38.32-2.46-2.51-.29-6.97,2.86-6.97,1.58,0,2.49,1.19,2.94,1.68,13.69,14.89,10.28,42.22-8.18,52.04h-.01Z"/>
</svg>