<?xml version="1.0" encoding="UTF-8"?>
<svg id="Layer_1" xmlns="http://www.w3.org/2000/svg" version="1.1" viewBox="0 0 200 50">
  <!-- Generator: Adobe Illustrator 29.5.0, SVG Export Plug-In . SVG Version: 2.1.0 Build 137)  -->
  <defs>
    <style>
      .st0 {
        fill: #ffe1a5;
      }

      .st1, .st2 {
        fill: #fff;
      }

      .st2 {
        stroke: #000;
        stroke-miterlimit: 10;
      }
    </style>
  </defs>
  <g>
    <g>
      <path class="st1" d="M184.76,33.95c-1.66,0-3.5-.2-5.48-.59-1.71-.34-3.63-.51-5.73-.51-5.17,0-9.69,1.05-9.73,1.06h-.1c-.1,0-.2,0-.29,0-.95,0-1.69-.26-2.18-.77-.48-.5-.71-1.21-.68-2.12.15-3.02,9.12-3.25,11.86-3.25,3.93,0,7.86.4,10.51,1.07.61.15,1.2.23,1.77.23,3.39,0,5.35-2.74,5.47-5.32-.04-1.43-.65-2.38-1.36-3.47-.34-.52-.68-1.05-1.01-1.68-.56-.98-1.18-1.82-1.77-2.63-1.42-1.93-2.76-3.76-2.64-6.74-.15-2.21.58-4.31,2.06-5.9,1.49-1.6,3.56-2.52,5.68-2.52,1.95,0,3.74.76,5.17,2.2,1.78,1.67,2.48,4.67,1.69,7.3-.63,2.12-2.12,3.53-4.07,3.87-.14.02-.28.04-.42.04-.91,0-1.74-.52-2.18-1.35-.44-.83-.39-1.82.13-2.56l.02-.03.02-.03c1.17-1.27,1.64-2.48,1.27-3.3-.23-.53-.8-.86-1.48-.86-1.11,0-2.28.89-2.42,2.89-.03,3.04,1.57,4.88,3.27,6.82,1.94,2.23,3.95,4.53,3.61,8.7-.45,6.16-4.26,9.42-11,9.42h0v.02Z"/>
      <path class="st1" d="M115,10.36c.12,2.55-.26,5.23-.77,7.71-1.6,7.82-6.33,12.59-10.65,4.79-3.7,6.76-8.11,4.68-10.08-4.76-.63-3.34-1.64-6.01-1.49-7.8.26-3.06,4.6-3.46,5.25-.03.37,1.93.26,5.55,1.93,9.3.13.28.41.16.46,0,.48-1.71.78-4.14,1.29-7.47.4-3.7,5.47-3.22,5.77-.16.23,2.31.74,5.49,1.19,7.63.04.21.42.3.54,0,.78-1.92,1.52-4.96,1.31-9.17-.18-3.51,5.05-3.17,5.25-.04Z"/>
      <path class="st1" d="M166.32,22.03c0,2.52-3.51,4.75-6.57,4.75-6.02-.82-5.71-6.68-5.37-13.6-2.26.14-4.18-.63-4.05-2.44,0-1.98.87-2.69,4.17-2.81.12-4.67.35-6.12,2.58-6.09,3.5.06,2.69,2.93,2.58,6.05,1.95-.26,4.96-.29,5.04,2.4,0,2.19-.74,2.65-5.21,2.85.04,5.56-.7,5.7.33,8.38.79-.04,1.24-.25,1.45-.58,1.05-2.55,5.13-1.67,5.04,1.07v.02Z"/>
      <path class="st1" d="M176.43,7.85c4.59,0,7.03,3.68,7.03,9.8-.34,3,.56,8.95-3.31,9.14-4.73-.41-1.41-6.58-1.94-9.26,0-2.93-.58-4.42-1.78-4.42-1.93-.21-2.72,2.34-3.35,3.76,0,2.04.05,6.65-.13,7.61-.3,3.24-5.29,2.96-5.21-.29.31-4.91-.27-14.47-.32-19.47,0-1.49,1.03-2.77,2.48-2.77,2.52,0,2.93,1.9,2.93,6.86,1.2-.62,2.4-.95,3.6-.95h0Z"/>
      <path class="st1" d="M84.47,9.58c-5,0-8.76,4.01-8.76,9.09-.11,6.83,6.32,10.41,11.49,6.16.58,3.52,5.24,3.06,5.29-.17-1.06-7.94.27-15.58-8.02-15.09h0ZM82.59,13.57c.49-.06.95.35,1.02.93.07.57-.27,1.09-.76,1.15-.49.06-.95-.35-1.02-.93-.07-.57.27-1.09.76-1.15ZM82.88,21.6c-.26-.57-.58-.91-.93-1.14-.34-.23-.79-.39-1.13-.47-.74-.17-1.2-.43-1.17-1.38.05-1.67,2.06-2.1,3.33-2.48.85-.17,1.67-.37,2.24.07.74.58.56,1.03.64,2.2.17,2.23-1.89,5.62-3,3.2h.02ZM86.15,14.22c-.26.62-.87.96-1.36.76-.5-.2-.69-.87-.44-1.5.26-.62.87-.96,1.36-.76.5.2.69.87.44,1.5ZM87.54,19.15c-.57.07-1.09-.27-1.15-.76-.06-.49.35-.95.93-1.02.57-.07,1.09.27,1.15.76.06.49-.35.95-.93,1.02ZM88.1,16.24c-.54.4-1.24.37-1.56-.06s-.14-1.11.4-1.51c.54-.4,1.24-.37,1.56.06s.14,1.11-.4,1.51Z"/>
      <path class="st1" d="M142.99,9.58c-5,0-8.76,4.01-8.76,9.09-.11,6.83,6.32,10.41,11.49,6.16.58,3.52,5.24,3.06,5.29-.17-1.06-7.94.27-15.58-8.02-15.09h0ZM141.11,13.57c.49-.06.95.35,1.02.93.07.57-.27,1.09-.76,1.15-.49.06-.95-.35-1.02-.93-.07-.57.27-1.09.76-1.15ZM141.4,21.6c-.26-.57-.58-.91-.93-1.14-.34-.23-.79-.39-1.13-.47-.74-.17-1.2-.43-1.17-1.38.05-1.67,2.06-2.1,3.33-2.48.85-.17,1.67-.37,2.24.07.74.58.56,1.03.64,2.2.17,2.23-1.89,5.62-3,3.2h.02ZM144.67,14.22c-.26.62-.87.96-1.36.76-.5-.2-.69-.87-.44-1.5.26-.62.87-.96,1.36-.76.5.2.69.87.44,1.5ZM146.06,19.15c-.57.07-1.09-.27-1.15-.76s.35-.95.93-1.02c.57-.07,1.09.27,1.15.76s-.35.95-.93,1.02ZM146.62,16.24c-.54.4-1.24.37-1.56-.06-.32-.43-.14-1.11.4-1.51.54-.4,1.24-.37,1.56.06s.14,1.11-.4,1.51Z"/>
      <path class="st1" d="M123.71,8.02c-9.34-.25-7.51,8.54-7.61,15.21,0,7.56-.04,10.17,2.77,10.17,1.53,0,2.73-1.03,2.73-2.65,0-1.2-.21-4.39-.21-5.17,13.9,4.76,15.27-17.33,2.31-17.57h.01ZM126.07,21.21c-1.84.68-4.03-.63-4.88-2.94-.85-2.3-.05-4.72,1.79-5.4,1.84-.68,4.03.63,4.88,2.94.85,2.3.05,4.72-1.79,5.4Z"/>
      <path class="st1" d="M76.05,11.08c-.27-5.99-4.52-9.61-10.92-9.32-2.2.28-5.72-.46-5.71,2.78l.37,19.43c.06,1.45,1.19,2.68,2.68,2.61,3.53,0,2.26-4.85,2.37-7.02,6.37-.61,11.32-2.67,11.21-8.48ZM64.68,14.56l-.45-7.97c.63-.24,1.79-.31,2.53-.31,2.79,0,5.06,1.94,5.06,4.33s-2.26,4.33-5.06,4.33c-.74,0-1.44-.14-2.07-.38h-.01Z"/>
    </g>
    <g>
      <path class="st0" d="M59.72,48.39v-10.42h3c1.78,0,2.67.99,2.67,2.96,0,.97-.24,1.68-.73,2.13-.49.45-1.17.68-2.06.68h-.98v4.66h-1.9,0ZM61.62,42.39h.61c.54,0,.9-.11,1.09-.32s.28-.6.28-1.17c0-.32,0-.57-.04-.75-.03-.18-.08-.34-.18-.48-.09-.14-.23-.24-.41-.3s-.43-.08-.74-.08h-.62v3.09h.01Z"/>
      <path class="st0" d="M66.39,48.39v-10.42h4.36v1.34h-2.46v2.99h1.95v1.34h-1.95v3.44h2.5v1.31h-4.4Z"/>
      <path class="st0" d="M72.9,48.39v-9.02h-1.75v-1.4h5.34v1.4h-1.69v9.02h-1.9Z"/>
      <path class="st0" d="M79.95,48.51c-1.84,0-2.8-1.06-2.89-3.18l1.65-.35c.04,1.38.44,2.07,1.18,2.07.29,0,.5-.09.64-.26.14-.18.21-.41.21-.71s-.05-.55-.16-.8c-.1-.24-.23-.44-.36-.59-.14-.15-.34-.34-.59-.57l-1.37-1.19c-.4-.35-.7-.72-.9-1.1-.2-.38-.3-.85-.3-1.42,0-.81.24-1.44.71-1.89.48-.45,1.13-.68,1.96-.69.38,0,.72.04,1.01.14s.54.23.73.4c.19.17.35.37.48.62.13.25.22.5.29.77.06.27.11.56.13.89l-1.62.32c0-.21-.02-.39-.04-.55s-.05-.31-.1-.47c-.05-.16-.11-.29-.18-.39s-.17-.18-.3-.24c-.12-.06-.27-.08-.43-.07-.28.02-.5.11-.64.28-.15.17-.22.4-.22.68,0,.34.07.61.2.83s.34.45.62.69l1.36,1.18c.23.21.42.4.59.6.17.19.33.41.48.66s.27.52.35.82.12.61.12.94c0,.76-.24,1.37-.72,1.85-.48.47-1.11.71-1.89.71v.02Z"/>
      <path class="st0" d="M86.81,48.39v-10.42h2.39c.55,0,1.02.05,1.41.14.39.09.74.24,1.03.45s.51.5.65.86.22.81.22,1.33c0,.65-.1,1.19-.29,1.6-.19.42-.52.72-.96.91l1.45,5.14h-1.9l-1.24-4.76h-.84v4.76h-1.92ZM88.71,42.41h.46c.56,0,.96-.12,1.2-.36s.36-.65.36-1.23-.1-.96-.31-1.2-.58-.36-1.13-.36h-.57v3.14h-.01Z"/>
      <path class="st0" d="M93.95,48.39v-10.42h4.36v1.34h-2.46v2.99h1.95v1.34h-1.95v3.44h2.5v1.31h-4.4Z"/>
      <path class="st0" d="M99.44,48.39v-10.42h1.9v9.11h2.5v1.31h-4.4Z"/>
      <path class="st0" d="M107.56,48.51c-1.07,0-1.84-.29-2.31-.87s-.7-1.44-.7-2.56v-3.85c0-.55.05-1.03.16-1.44.1-.41.27-.76.51-1.06.23-.3.54-.52.93-.67.39-.15.86-.22,1.41-.22,1.07,0,1.84.29,2.3.86.47.57.7,1.42.7,2.53v3.85c0,.54-.05,1.02-.16,1.44-.11.41-.28.77-.51,1.07s-.54.53-.93.69c-.39.15-.86.23-1.4.23ZM107.09,47.02c.13.05.29.08.47.08s.34-.03.47-.08c.13-.05.23-.13.31-.21.08-.09.14-.2.18-.35s.07-.28.09-.43c.01-.14.02-.31.02-.51v-4.73c0-.25-.01-.46-.04-.63-.03-.17-.07-.33-.15-.47-.07-.15-.18-.26-.33-.33-.15-.07-.33-.11-.56-.11s-.41.04-.56.11c-.15.07-.26.18-.33.33s-.12.31-.14.47c-.03.17-.04.38-.04.63v4.73c0,.2,0,.37.02.51.01.14.04.28.09.43s.1.26.18.35.18.16.31.21h.01Z"/>
      <path class="st0" d="M114.75,48.51c-.45,0-.84-.06-1.19-.17-.34-.11-.63-.27-.85-.47s-.41-.45-.55-.75-.24-.62-.3-.96c-.06-.34-.08-.73-.08-1.15v-3.63c0-.45.03-.85.09-1.2.06-.35.16-.67.3-.97.14-.3.32-.55.54-.74.22-.19.51-.34.85-.45s.74-.16,1.19-.16c.52,0,.96.07,1.33.21s.66.34.87.61.37.58.47.94c.1.36.14.78.14,1.25v.89h-1.83v-.89c0-.52-.03-.87-.08-1.05-.11-.35-.38-.54-.8-.57h-.1c-.16,0-.3.02-.42.06-.12.04-.22.1-.29.18s-.14.17-.18.26c-.05.09-.08.21-.1.36s-.04.29-.04.41v4.89c0,.61.08,1.05.23,1.31.15.26.43.39.82.39.13,0,.25-.02.36-.05.1-.03.19-.07.26-.12s.13-.12.18-.21.08-.17.11-.25.04-.19.06-.32.02-.26.02-.35v-1.33h1.83v.85c0,.39-.03.74-.08,1.05-.05.31-.15.6-.28.87s-.3.5-.51.68-.48.32-.8.42-.71.15-1.14.15h-.03Z"/>
      <path class="st0" d="M118.34,48.39l2.12-10.42h1.98l2.11,10.42h-1.77l-.42-2.42h-1.8l-.43,2.42h-1.79ZM120.76,44.73h1.4l-.7-4.28s-.7,4.28-.7,4.28Z"/>
      <path class="st0" d="M126.23,48.39v-9.02h-1.75v-1.4h5.34v1.4h-1.69v9.02h-1.9Z"/>
      <path class="st0" d="M130.7,48.39v-10.42h1.87v10.42h-1.87Z"/>
      <path class="st0" d="M137.02,48.51c-1.07,0-1.84-.29-2.31-.87-.47-.58-.7-1.44-.7-2.56v-3.85c0-.55.05-1.03.16-1.44.1-.41.27-.76.51-1.06.23-.3.54-.52.93-.67.39-.15.86-.22,1.41-.22,1.07,0,1.84.29,2.3.86.47.57.7,1.42.7,2.53v3.85c0,.54-.05,1.02-.16,1.44-.11.41-.28.77-.51,1.07s-.54.53-.93.69c-.39.15-.86.23-1.4.23h0ZM136.54,47.02c.13.05.29.08.47.08s.34-.03.47-.08c.13-.05.23-.13.31-.21.08-.09.14-.2.18-.35.04-.14.07-.28.09-.43,0-.14.02-.31.02-.51v-4.73c0-.25,0-.46-.04-.63-.03-.17-.07-.33-.15-.47-.07-.15-.18-.26-.33-.33s-.33-.11-.56-.11-.41.04-.56.11-.26.18-.33.33-.12.31-.14.47c-.03.17-.04.38-.04.63v4.73c0,.2,0,.37.02.51s.04.28.09.43c.04.14.1.26.18.35s.18.16.31.21h0Z"/>
      <path class="st0" d="M141.41,48.39v-10.42h1.31l2.55,5.9v-5.9h1.57v10.42h-1.24l-2.58-6.2v6.2h-1.61Z"/>
      <path class="st0" d="M154.17,48.51c-1.84,0-2.8-1.06-2.89-3.18l1.65-.35c.04,1.38.44,2.07,1.18,2.07.29,0,.5-.09.64-.26.14-.18.21-.41.21-.71s-.05-.55-.16-.8c-.1-.24-.23-.44-.36-.59-.14-.15-.34-.34-.59-.57l-1.37-1.19c-.4-.35-.7-.72-.9-1.1-.2-.38-.3-.85-.3-1.42,0-.81.24-1.44.71-1.89.48-.45,1.13-.68,1.96-.69.38,0,.72.04,1.01.14s.54.23.73.4c.19.17.35.37.48.62.13.25.22.5.29.77.06.27.11.56.13.89l-1.62.32c0-.21-.02-.39-.04-.55-.02-.16-.05-.31-.1-.47s-.11-.29-.18-.39c-.07-.1-.17-.18-.3-.24-.12-.06-.27-.08-.43-.07-.28.02-.5.11-.64.28s-.22.4-.22.68c0,.34.07.61.2.83.13.22.34.45.62.69l1.36,1.18c.23.21.42.4.59.6s.33.41.48.66.27.52.35.82.12.61.12.94c0,.76-.24,1.37-.72,1.85-.48.47-1.11.71-1.89.71v.02Z"/>
      <path class="st0" d="M157.89,48.39v-10.42h4.36v1.34h-2.46v2.99h1.95v1.34h-1.95v3.44h2.5v1.31h-4.4Z"/>
      <path class="st0" d="M163.38,48.39v-10.42h2.39c.55,0,1.02.05,1.41.14s.74.24,1.03.45.51.5.65.86.22.81.22,1.33c0,.65-.1,1.19-.29,1.6-.19.42-.52.72-.96.91l1.45,5.14h-1.9l-1.24-4.76h-.84v4.76h-1.92ZM165.28,42.41h.46c.56,0,.96-.12,1.2-.36.24-.24.36-.65.36-1.23s-.1-.96-.31-1.2c-.21-.24-.58-.36-1.13-.36h-.57v3.14h0Z"/>
      <path class="st0" d="M172.12,48.39l-2.11-10.42h1.68l1.37,7.25,1.29-7.25h1.72l-2.12,10.42h-1.84.01Z"/>
      <path class="st0" d="M177.21,48.39v-10.42h1.87v10.42h-1.87Z"/>
      <path class="st0" d="M183.48,48.51c-.45,0-.84-.06-1.19-.17-.34-.11-.63-.27-.85-.47s-.41-.45-.55-.75-.24-.62-.3-.96-.08-.73-.08-1.15v-3.63c0-.45.03-.85.09-1.2.06-.35.16-.67.3-.97.14-.3.32-.55.54-.74.22-.19.51-.34.85-.45.34-.11.74-.16,1.19-.16.52,0,.96.07,1.33.21s.66.34.87.61c.21.27.37.58.47.94.1.36.14.78.14,1.25v.89h-1.83v-.89c0-.52-.03-.87-.08-1.05-.11-.35-.38-.54-.8-.57h-.1c-.16,0-.3.02-.42.06s-.22.1-.29.18-.14.17-.18.26c-.05.09-.08.21-.1.36s-.04.29-.04.41v4.89c0,.61.08,1.05.23,1.31s.43.39.82.39c.13,0,.25-.02.36-.05.1-.03.19-.07.26-.12.07-.05.13-.12.18-.21.05-.09.08-.17.11-.25s.04-.19.06-.32.02-.26.02-.35v-1.33h1.83v.85c0,.39-.03.74-.08,1.05-.05.31-.15.6-.28.87s-.3.5-.51.68c-.21.18-.48.32-.8.42-.33.1-.71.15-1.14.15h-.03Z"/>
      <path class="st0" d="M187.61,48.39v-10.42h4.36v1.34h-2.46v2.99h1.95v1.34h-1.95v3.44h2.5v1.31h-4.4Z"/>
      <path class="st0" d="M195.72,48.51c-1.84,0-2.8-1.06-2.89-3.18l1.65-.35c.04,1.38.44,2.07,1.18,2.07.29,0,.5-.09.64-.26.14-.18.21-.41.21-.71s-.05-.55-.16-.8c-.1-.24-.23-.44-.36-.59-.14-.15-.34-.34-.59-.57l-1.37-1.19c-.4-.35-.7-.72-.9-1.1-.2-.38-.3-.85-.3-1.42,0-.81.24-1.44.71-1.89.48-.45,1.13-.68,1.96-.69.38,0,.72.04,1.01.14s.54.23.73.4c.19.17.35.37.48.62.13.25.22.5.29.77.06.27.11.56.13.89l-1.62.32c0-.21-.02-.39-.04-.55-.02-.16-.05-.31-.1-.47s-.11-.29-.18-.39c-.07-.1-.17-.18-.3-.24-.12-.06-.27-.08-.43-.07-.28.02-.5.11-.64.28s-.22.4-.22.68c0,.34.07.61.2.83.13.22.34.45.62.69l1.36,1.18c.23.21.42.4.59.6s.33.41.48.66.27.52.35.82.12.61.12.94c0,.76-.24,1.37-.72,1.85-.48.47-1.11.71-1.89.71v.02Z"/>
    </g>
  </g>
  <g>
    <path class="st2" d="M22.5,16.79c0-.78.6-1.34,1.38-1.33.77.01,1.38.62,1.37,1.37-.01.74-.65,1.38-1.38,1.38-.79,0-1.38-.62-1.38-1.42"/>
    <path class="st0" d="M46.73,8.47c-1.68-2.45-3.47-6.81-6.62-7-4.04.59-5.4,4.3-2.25,7.74,4.68,5.12,6.49,11.97,4.62,18.05-1.88,7.22-10.01,14.21-17.86,14.22-6.08.28-16.3-6.22-13.99-13.78,16.29-5.22,5.71-13.64,11.95-15.43,2.17.05,6.24,5.02,8.24,5.12.81-.02,1,1.08,1.55,1.6,3.68-.02.96,5.16-1.07,6.1-2.06,1.23-4.01.48-6.19.45-3.87-.27-7.83,5.75-4.75,8.54,3.93,3.56,11.32-1.01,14.66-5.12,2.97-3.77,3.38-8.01,2.33-12.32-3.21-11.26-10.47-13.36-17.65-11.91-7.8,1.57-14.85,7.51-16.51,15.55-5.25,25.36,21.92,31.91,33.23,25.29,11.31-6.62,17.79-24.82,10.31-37.1Z"/>
    <path d="M24.41,49.32c-8.14,0-17.33-5.73-20.49-12.77-3.11-6.55-3.09-14.66.06-21.18,2.88-5.95,8.14-10.09,14.83-11.63,1.45-.29,2.86-.44,4.2-.44,9.01,0,13.78,6.23,15.24,12.06,1.87,7.47-1.12,14.99-7.28,18.28-2.67,1.72-5.22,2.63-7.37,2.63-2.53,0-4.47-1.32-5.06-3.43-.62-2.23.34-5.44,3.88-7.57.17-.09.91-.46,1.11-.52,0,0,.3-.1.36-.13.28-.09.45-.2.49-.3.06-.15-.11-.47-.28-.78-.29-.55-.66-1.23-.42-2.02l.22-.75.33.7c1.12,2.36,2.77,3.66,4.63,3.66,1.57,0,3.21-.97,4.08-2.41.63-1.04.74-2.15.32-3.09-.1,0-.19,0-.28,0-1.31,0-1.58-.65-1.81-1.23-.06-.14-.12-.29-.19-.43-1.85-.38-3.3-1.61-4.69-2.8-.91-.78-1.85-1.58-2.87-2.1-.09-.05-.43-.19-.77-.19-.06,0-.13,0-.19.02-1.48.22-1.5,1.22-1.41,3.28.16,3.44.39,8.64-9.86,11.81-.68,2.08-.02,3.86.65,4.99,2.77,4.93,7.53,7.88,12.74,7.88h0c2.52,0,5.09-.7,7.43-2.01,4.81-2.5,8.38-6.78,9.79-11.73,1.35-4.74.68-9.74-1.89-14.07-.46-1.06-1.21-1.93-1.94-2.77-1.13-1.32-2.31-2.69-2.36-4.67-.04-1.22.43-2.4,1.32-3.32.89-.92,2.08-1.45,3.27-1.45,1,0,1.91.38,2.62,1.11,2.06,2.12,3.19,4.04,4.38,6.08,4.78,8.49,4.5,19.75-.72,28.69-4.67,7.99-12.23,12.57-20.75,12.57,0,0-.2,0-.2,0-.35.03-.74.04-1.13.04ZM23.11,4.94c-.8,0-1.62.07-2.44.21-6.71,1.27-12.03,5.18-14.97,11-3.07,6.08-3.19,13.6-.3,19.62,3.58,7.21,11.44,11.87,20.02,11.87,3.7,0,7.27-.92,10.32-2.66,6.66-3.55,11.27-10.24,12.66-18.38,1.45-8.48-.86-16.99-6.18-22.78l-.1-.12c-.38-.42-1.01-1.13-2.02-1.13-1.08,0-2.09.75-2.58,1.91-.49,1.16-.3,2.33.5,3.15,5.74,5.87,6.52,11.97,6.15,16.06-.52,5.87-3.79,11.49-8.75,15.04-3.48,2.48-7.48,3.85-11.26,3.85s-9.48-1.46-13.72-8.44c-.82-1.34-1.99-4.6-.58-7.31l.02-.03.03-.04c-1.56-4.6-1.07-9.33,1.33-12.68,1.95-2.73,4.98-4.23,8.55-4.23.87,0,1.77.09,2.7.26v.59c-4.36.73-4.8,2.89-5.27,5.19-.35,1.74-.72,3.54-2.73,4.77l-.37-.47c1.1-1.13,1.31-2.62,1.53-4.2.18-1.28.36-2.6,1.05-3.76-5.18,1.79-6.29,8.09-5.05,13.37.03.14.05.19.06.2,0-.02.04-.02.11-.05,2.43-1.04,5.4-2.32,6.73-4.53.88-1.25.72-2.73.55-4.3-.19-1.83-.39-3.72,1.18-5.12.83-.64,1.63-.95,2.47-.95,1.73,0,3.28,1.35,4.78,2.66,1.53,1.34,3.11,2.72,4.88,2.72.27,0,.55-.03.82-.1.12-.02.2-.02.28-.02.46,0,.8.2,1.04.62.93,1.47,1.22,3.26.81,5.04-.41,1.79-1.52,3.35-3.03,4.28-.77.62-1.64.92-2.73.92-.77,0-1.56-.15-2.33-.3-.74-.15-1.51-.29-2.24-.29-.55,0-1.03.08-1.47.25-1.87.85-3.35,3.76-2.91,5.76.26,1.19,1.16,1.82,2.61,1.82h0c.12,0,.24,0,.36-.01,2.22-.22,4.27-.86,6.08-1.89,7.19-4.13,8.27-11.16,6.89-16.36-1.46-5.49-6.19-11.03-13.47-11.03Z"/>
    <path d="M46.95,8.18c-1.3-2.22-2.36-3.99-4.34-6.02-2.43-2.49-6.8-.08-6.69,3.44.09,3.12,3.09,4.62,4.26,7.3,5.65,9.52,1.78,21.13-8.01,26.22-7.46,4.2-16.2,1.83-20.58-5.97-.91-1.53-1.29-3.36-.69-5.25.03-.07.05-.14.21-.18,15.69-4.85,6.29-14.35,11.31-15.1.47-.08.98.11,1.15.2,2.65,1.36,4.56,4.35,7.62,4.9.53.86.3,1.79,2.27,1.61,2.16,4.07-5.74,10.17-9.49,2.28-.46,1.53,1.81,2.71.04,3.29-.12.05-.26.09-.39.14-.16.05-.86.39-1.04.49-7.79,4.69-3.39,15.35,8.26,7.85C44.73,25.95,39.16-.03,18.88,4.03,2.94,7.72-1.31,24.83,4.2,36.43c3.39,7.55,13.46,13.12,21.34,12.55,19.62.16,30.81-24.11,21.41-40.8ZM35.89,45.25c-10.52,5.99-25.32,1.61-30.76-9.35C-.3,24.6,4.63,7.89,20.62,4.86c15.29-2.62,23.88,19.32,9.22,27.73-1.76,1-3.83,1.69-6.21,1.93-5.35.35-3.49-6.64-.19-8.15,2.87-1.1,6.01,1.64,8.72-.55,3.01-1.86,3.98-5.98,2.12-8.92-.25-.43-.56-.51-.99-.46-4.98,1.18-8.05-8.08-12.82-4.4-2.73,2.43.32,6.52-1.67,9.35-1.39,2.31-4.5,3.63-6.88,4.65-.41.16-.51-.03-.57-.36-1.26-5.38-.19-12.31,5.91-13.91.06-.02.12.03.09.06-2.06,2.53-.75,6.25-3.02,8.58,4.53-2.77.24-8.69,8.1-10-10.33-1.93-15.28,7.45-12.22,16.32.05.12-.03.18-.09.25-1.31,2.52-.27,5.64.57,7.02,6.59,10.83,17.39,9.61,24.55,4.5,9.05-6.46,12.8-20.17,2.56-30.64-1.97-2.01-.23-5.57,2.29-5.57,1.26,0,1.99.95,2.35,1.34,10.95,11.91,8.22,33.76-6.54,41.61h0Z"/>
  </g>
</svg>