<?xml version="1.0" encoding="UTF-8"?>
<svg id="Layer_1" xmlns="http://www.w3.org/2000/svg" version="1.1" viewBox="0 0 200 50">
  <!-- Generator: Adobe Illustrator 29.5.0, SVG Export Plug-In . SVG Version: 2.1.0 Build 137)  -->
  <defs>
    <style>
      .st0 {
        fill: #ffe1a5;
      }

      .st1 {
        fill: #50321f;
      }
    </style>
  </defs>
  <g>
    <g>
      <path class="st1" d="M184.76,33.95c-1.66,0-3.5-.2-5.48-.59-1.71-.34-3.63-.51-5.73-.51-5.17,0-9.69,1.05-9.73,1.06h-.05s-.05.01-.05.01c-.1,0-.2,0-.29,0-.95,0-1.69-.26-2.18-.77-.48-.5-.71-1.21-.68-2.12.15-3.02,9.12-3.25,11.86-3.25,3.93,0,7.86.4,10.51,1.07.61.15,1.2.23,1.77.23,3.39,0,5.35-2.74,5.47-5.32-.04-1.43-.65-2.38-1.36-3.47-.34-.52-.68-1.05-1.01-1.68-.56-.98-1.18-1.82-1.77-2.63-1.42-1.93-2.76-3.76-2.64-6.74-.15-2.21.58-4.31,2.06-5.9,1.49-1.6,3.56-2.52,5.68-2.52,1.95,0,3.74.76,5.17,2.2,1.78,1.67,2.48,4.67,1.69,7.3-.63,2.12-2.12,3.53-4.07,3.87-.14.02-.28.04-.42.04-.91,0-1.74-.52-2.18-1.35-.44-.83-.39-1.82.13-2.56l.02-.03.02-.03c1.17-1.27,1.64-2.48,1.27-3.3-.23-.53-.8-.86-1.48-.86-1.11,0-2.28.89-2.42,2.89-.03,3.04,1.57,4.88,3.27,6.82,1.94,2.23,3.95,4.53,3.61,8.7-.45,6.16-4.26,9.42-11,9.42h0Z"/>
      <path class="st1" d="M115,10.36c.12,2.55-.26,5.23-.77,7.71-1.6,7.82-6.33,12.59-10.65,4.79-3.7,6.76-8.11,4.68-10.08-4.76-.63-3.34-1.64-6.01-1.49-7.8.26-3.06,4.6-3.46,5.25-.03.37,1.93.26,5.55,1.93,9.3.13.28.41.16.46,0,.48-1.71.78-4.14,1.29-7.47.4-3.7,5.47-3.22,5.77-.16.23,2.31.74,5.49,1.19,7.63.04.21.42.3.54,0,.78-1.92,1.52-4.96,1.31-9.17-.18-3.51,5.05-3.17,5.25-.04Z"/>
      <path class="st1" d="M166.32,22.03c0,2.52-3.51,4.75-6.57,4.75-6.02-.82-5.71-6.68-5.37-13.6-2.26.14-4.18-.63-4.05-2.44,0-1.98.87-2.69,4.17-2.81.12-4.67.35-6.12,2.58-6.09,3.5.06,2.69,2.93,2.58,6.05,1.95-.26,4.96-.29,5.04,2.4,0,2.19-.74,2.65-5.21,2.85.04,5.56-.7,5.7.33,8.38.79-.04,1.24-.25,1.45-.58,1.05-2.55,5.13-1.67,5.04,1.07Z"/>
      <path class="st1" d="M176.43,7.85c4.59,0,7.03,3.68,7.03,9.8-.34,3,.56,8.95-3.31,9.14-4.73-.41-1.41-6.58-1.94-9.26,0-2.93-.58-4.42-1.78-4.42-1.93-.21-2.72,2.34-3.35,3.76,0,2.04.05,6.65-.13,7.61-.3,3.24-5.29,2.96-5.21-.29.31-4.91-.27-14.47-.32-19.47,0-1.49,1.03-2.77,2.48-2.77,2.52,0,2.93,1.9,2.93,6.86,1.2-.62,2.4-.95,3.6-.95Z"/>
      <path class="st1" d="M84.47,9.58c-5,0-8.76,4.01-8.76,9.09-.11,6.83,6.32,10.41,11.49,6.16.58,3.52,5.24,3.06,5.29-.17-1.06-7.94.27-15.58-8.02-15.09ZM82.59,13.57c.49-.06.95.35,1.02.93.07.57-.27,1.09-.76,1.15-.49.06-.95-.35-1.02-.93-.07-.57.27-1.09.76-1.15ZM82.88,21.6c-.26-.57-.58-.91-.93-1.14-.34-.23-.79-.39-1.13-.47-.74-.17-1.2-.43-1.17-1.38.05-1.67,2.06-2.1,3.33-2.48.85-.17,1.67-.37,2.24.07.74.58.56,1.03.64,2.2.17,2.23-1.89,5.62-3,3.2ZM86.15,14.22c-.26.62-.87.96-1.36.76-.5-.2-.69-.87-.44-1.5.26-.62.87-.96,1.36-.76.5.2.69.87.44,1.5ZM87.54,19.15c-.57.07-1.09-.27-1.15-.76-.06-.49.35-.95.93-1.02.57-.07,1.09.27,1.15.76.06.49-.35.95-.93,1.02ZM88.1,16.24c-.54.4-1.24.37-1.56-.06-.32-.43-.14-1.11.4-1.51.54-.4,1.24-.37,1.56.06s.14,1.11-.4,1.51Z"/>
      <path class="st1" d="M142.99,9.58c-5,0-8.76,4.01-8.76,9.09-.11,6.83,6.32,10.41,11.49,6.16.58,3.52,5.24,3.06,5.29-.17-1.06-7.94.27-15.58-8.02-15.09ZM141.11,13.57c.49-.06.95.35,1.02.93.07.57-.27,1.09-.76,1.15-.49.06-.95-.35-1.02-.93-.07-.57.27-1.09.76-1.15ZM141.4,21.6c-.26-.57-.58-.91-.93-1.14-.34-.23-.79-.39-1.13-.47-.74-.17-1.2-.43-1.17-1.38.05-1.67,2.06-2.1,3.33-2.48.85-.17,1.67-.37,2.24.07.74.58.56,1.03.64,2.2.17,2.23-1.89,5.62-3,3.2ZM144.67,14.22c-.26.62-.87.96-1.36.76-.5-.2-.69-.87-.44-1.5.26-.62.87-.96,1.36-.76.5.2.69.87.44,1.5ZM146.06,19.15c-.57.07-1.09-.27-1.15-.76-.06-.49.35-.95.93-1.02.57-.07,1.09.27,1.15.76.06.49-.35.95-.93,1.02ZM146.62,16.24c-.54.4-1.24.37-1.56-.06-.32-.43-.14-1.11.4-1.51.54-.4,1.24-.37,1.56.06s.14,1.11-.4,1.51Z"/>
      <path class="st1" d="M123.71,8.02c-9.34-.25-7.51,8.54-7.61,15.21,0,7.56-.04,10.17,2.77,10.17,1.53,0,2.73-1.03,2.73-2.65,0-1.2-.21-4.39-.21-5.17,13.9,4.76,15.27-17.33,2.31-17.57ZM126.07,21.21c-1.84.68-4.03-.63-4.88-2.94-.85-2.3-.05-4.72,1.79-5.4,1.84-.68,4.03.63,4.88,2.94.85,2.3.05,4.72-1.79,5.4Z"/>
      <path class="st1" d="M76.05,11.08c-.27-5.99-4.52-9.61-10.92-9.32-2.2.28-5.72-.46-5.71,2.78l.37,19.43c.06,1.45,1.19,2.68,2.68,2.61,3.53,0,2.26-4.85,2.37-7.02,6.37-.61,11.32-2.67,11.21-8.48ZM64.68,14.56l-.45-7.97c.63-.24,1.79-.31,2.53-.31,2.79,0,5.06,1.94,5.06,4.33s-2.26,4.33-5.06,4.33c-.74,0-1.44-.14-2.07-.38Z"/>
    </g>
    <g>
      <path d="M59.72,48.39v-10.42h3c1.78,0,2.67.99,2.67,2.96,0,.97-.24,1.68-.73,2.13-.49.45-1.17.68-2.06.68h-.98v4.66h-1.9ZM61.62,42.39h.61c.54,0,.9-.11,1.09-.32s.28-.6.28-1.17c0-.32-.01-.57-.04-.75-.03-.18-.08-.34-.18-.48-.09-.14-.23-.24-.41-.3s-.43-.08-.74-.08h-.62v3.09Z"/>
      <path d="M66.39,48.39v-10.42h4.36v1.34h-2.46v2.99h1.95v1.34h-1.95v3.44h2.5v1.31h-4.39Z"/>
      <path d="M72.9,48.39v-9.02h-1.75v-1.4h5.34v1.4h-1.69v9.02h-1.9Z"/>
      <path d="M79.95,48.51c-1.84,0-2.8-1.06-2.89-3.18l1.65-.35c.04,1.38.44,2.07,1.18,2.07.29,0,.5-.09.64-.26.14-.18.21-.41.21-.71s-.05-.55-.16-.8c-.1-.24-.23-.44-.36-.59-.14-.15-.34-.34-.59-.57l-1.37-1.19c-.4-.35-.7-.72-.9-1.1-.2-.38-.3-.85-.3-1.42,0-.81.24-1.44.71-1.89.48-.45,1.13-.68,1.96-.69.38,0,.72.04,1.01.14.29.1.54.23.73.4.19.17.35.37.48.62.13.25.22.5.29.77.06.27.11.56.13.89l-1.62.32c0-.21-.02-.39-.04-.55s-.05-.31-.1-.47c-.05-.16-.11-.29-.18-.39-.07-.1-.17-.18-.3-.24-.12-.06-.27-.08-.43-.07-.28.02-.5.11-.64.28-.15.17-.22.4-.22.68,0,.34.07.61.2.83.13.22.34.45.62.69l1.36,1.18c.23.21.42.4.59.6.17.19.33.41.48.66.15.25.27.52.35.82.08.3.12.61.12.94,0,.76-.24,1.37-.72,1.85-.48.47-1.11.71-1.89.71Z"/>
      <path d="M86.81,48.39v-10.42h2.39c.55,0,1.02.05,1.41.14.39.09.74.24,1.03.45.29.21.51.5.65.86.14.36.22.81.22,1.33,0,.65-.1,1.19-.29,1.6-.19.42-.52.72-.96.91l1.45,5.14h-1.9l-1.24-4.76h-.84v4.76h-1.9ZM88.71,42.41h.46c.56,0,.96-.12,1.2-.36.24-.24.36-.65.36-1.23s-.1-.96-.31-1.2c-.21-.24-.58-.36-1.13-.36h-.57v3.14Z"/>
      <path d="M93.95,48.39v-10.42h4.36v1.34h-2.46v2.99h1.95v1.34h-1.95v3.44h2.5v1.31h-4.39Z"/>
      <path d="M99.44,48.39v-10.42h1.9v9.11h2.5v1.31h-4.39Z"/>
      <path d="M107.56,48.51c-1.07,0-1.84-.29-2.31-.87s-.7-1.44-.7-2.56v-3.85c0-.55.05-1.03.16-1.44.1-.41.27-.76.51-1.06.23-.3.54-.52.93-.67.39-.15.86-.22,1.41-.22,1.07,0,1.84.29,2.3.86.47.57.7,1.42.7,2.53v3.85c0,.54-.05,1.02-.16,1.44-.11.41-.28.77-.51,1.07-.23.3-.54.53-.93.69-.39.15-.86.23-1.4.23ZM107.09,47.02c.13.05.29.08.47.08s.34-.03.47-.08c.13-.05.23-.13.31-.21.08-.09.14-.2.18-.35s.07-.28.09-.43c.01-.14.02-.31.02-.51v-4.73c0-.25-.01-.46-.04-.63-.03-.17-.07-.33-.15-.47-.07-.15-.18-.26-.33-.33-.15-.07-.33-.11-.56-.11s-.41.04-.56.11c-.15.07-.26.18-.33.33-.07.15-.12.31-.14.47-.03.17-.04.38-.04.63v4.73c0,.2,0,.37.02.51.01.14.04.28.09.43s.1.26.18.35.18.16.31.21Z"/>
      <path d="M114.75,48.51c-.45,0-.84-.06-1.19-.17-.34-.11-.63-.27-.85-.47-.22-.2-.41-.45-.55-.75-.14-.3-.24-.62-.3-.96-.06-.34-.08-.73-.08-1.15v-3.63c0-.45.03-.85.09-1.2.06-.35.16-.67.3-.97.14-.3.32-.55.54-.74.22-.19.51-.34.85-.45.34-.11.74-.16,1.19-.16.52,0,.96.07,1.33.21.37.14.66.34.87.61.21.27.37.58.47.94.1.36.14.78.14,1.25v.89h-1.83v-.89c0-.52-.03-.87-.08-1.05-.11-.35-.38-.54-.8-.57h-.1c-.16,0-.3.02-.42.06-.12.04-.22.1-.29.18s-.14.17-.18.26c-.05.09-.08.21-.1.36-.02.15-.04.29-.04.41s0,.29,0,.48v4.41c0,.61.08,1.05.23,1.31.15.26.43.39.82.39.13,0,.25-.02.36-.05.1-.03.19-.07.26-.12s.13-.12.18-.21c.05-.09.08-.17.11-.25.03-.08.04-.19.06-.32s.02-.26.02-.35c0-.1,0-.23,0-.4v-.93h1.83v.85c0,.39-.03.74-.08,1.05-.05.31-.15.6-.28.87-.13.27-.3.5-.51.68-.21.18-.48.32-.8.42s-.71.15-1.14.15Z"/>
      <path d="M118.34,48.39l2.12-10.42h1.98l2.11,10.42h-1.77l-.42-2.42h-1.8l-.43,2.42h-1.79ZM120.76,44.73h1.4l-.7-4.28-.7,4.28Z"/>
      <path d="M126.23,48.39v-9.02h-1.75v-1.4h5.34v1.4h-1.69v9.02h-1.9Z"/>
      <path d="M130.7,48.39v-10.42h1.87v10.42h-1.87Z"/>
      <path d="M137.02,48.51c-1.07,0-1.84-.29-2.31-.87-.47-.58-.7-1.44-.7-2.56v-3.85c0-.55.05-1.03.16-1.44.1-.41.27-.76.51-1.06.23-.3.54-.52.93-.67.39-.15.86-.22,1.41-.22,1.07,0,1.84.29,2.3.86.47.57.7,1.42.7,2.53v3.85c0,.54-.05,1.02-.16,1.44-.11.41-.28.77-.51,1.07-.23.3-.54.53-.93.69-.39.15-.86.23-1.4.23ZM136.54,47.02c.13.05.29.08.47.08s.34-.03.47-.08c.13-.05.23-.13.31-.21.08-.09.14-.2.18-.35.04-.14.07-.28.09-.43.01-.14.02-.31.02-.51v-4.73c0-.25-.01-.46-.04-.63-.03-.17-.07-.33-.15-.47-.07-.15-.18-.26-.33-.33s-.33-.11-.56-.11-.41.04-.56.11c-.15.07-.26.18-.33.33-.07.15-.12.31-.14.47-.03.17-.04.38-.04.63v4.73c0,.2,0,.37.02.51s.04.28.09.43c.04.14.1.26.18.35s.18.16.31.21Z"/>
      <path d="M141.41,48.39v-10.42h1.31l2.55,5.9v-5.9h1.57v10.42h-1.24l-2.58-6.2v6.2h-1.61Z"/>
      <path d="M154.17,48.51c-1.84,0-2.8-1.06-2.89-3.18l1.65-.35c.04,1.38.44,2.07,1.18,2.07.29,0,.5-.09.64-.26.14-.18.21-.41.21-.71s-.05-.55-.16-.8c-.1-.24-.23-.44-.36-.59-.14-.15-.34-.34-.59-.57l-1.37-1.19c-.4-.35-.7-.72-.9-1.1-.2-.38-.3-.85-.3-1.42,0-.81.24-1.44.71-1.89.48-.45,1.13-.68,1.96-.69.38,0,.72.04,1.01.14.29.1.54.23.73.4.19.17.35.37.48.62.13.25.22.5.29.77.06.27.11.56.13.89l-1.62.32c0-.21-.02-.39-.04-.55-.02-.16-.05-.31-.1-.47-.05-.16-.11-.29-.18-.39-.07-.1-.17-.18-.3-.24-.12-.06-.27-.08-.43-.07-.28.02-.5.11-.64.28s-.22.4-.22.68c0,.34.07.61.2.83.13.22.34.45.62.69l1.36,1.18c.23.21.42.4.59.6s.33.41.48.66c.15.25.27.52.35.82s.12.61.12.94c0,.76-.24,1.37-.72,1.85-.48.47-1.11.71-1.89.71Z"/>
      <path d="M157.89,48.39v-10.42h4.36v1.34h-2.46v2.99h1.95v1.34h-1.95v3.44h2.5v1.31h-4.39Z"/>
      <path d="M163.38,48.39v-10.42h2.39c.55,0,1.02.05,1.41.14.39.09.74.24,1.03.45.29.21.51.5.65.86.14.36.22.81.22,1.33,0,.65-.1,1.19-.29,1.6-.19.42-.52.72-.96.91l1.45,5.14h-1.9l-1.24-4.76h-.84v4.76h-1.9ZM165.28,42.41h.46c.56,0,.96-.12,1.2-.36.24-.24.36-.65.36-1.23s-.1-.96-.31-1.2c-.21-.24-.58-.36-1.13-.36h-.57v3.14Z"/>
      <path d="M172.12,48.39l-2.11-10.42h1.68l1.37,7.25,1.29-7.25h1.72l-2.12,10.42h-1.84Z"/>
      <path d="M177.21,48.39v-10.42h1.87v10.42h-1.87Z"/>
      <path d="M183.48,48.51c-.45,0-.84-.06-1.19-.17-.34-.11-.63-.27-.85-.47s-.41-.45-.55-.75c-.14-.3-.24-.62-.3-.96-.06-.34-.08-.73-.08-1.15v-3.63c0-.45.03-.85.09-1.2.06-.35.16-.67.3-.97.14-.3.32-.55.54-.74.22-.19.51-.34.85-.45.34-.11.74-.16,1.19-.16.52,0,.96.07,1.33.21.37.14.66.34.87.61.21.27.37.58.47.94.1.36.14.78.14,1.25v.89h-1.83v-.89c0-.52-.03-.87-.08-1.05-.11-.35-.38-.54-.8-.57h-.1c-.16,0-.3.02-.42.06-.12.04-.22.1-.29.18s-.14.17-.18.26c-.05.09-.08.21-.1.36-.02.15-.04.29-.04.41,0,.13,0,.29,0,.48v4.41c0,.61.08,1.05.23,1.31s.43.39.82.39c.13,0,.25-.02.36-.05.1-.03.19-.07.26-.12.07-.05.13-.12.18-.21.05-.09.08-.17.11-.25.03-.08.04-.19.06-.32s.02-.26.02-.35c0-.1,0-.23,0-.4v-.93h1.83v.85c0,.39-.03.74-.08,1.05-.05.31-.15.6-.28.87-.13.27-.3.5-.51.68-.21.18-.48.32-.8.42-.33.1-.71.15-1.14.15Z"/>
      <path d="M187.61,48.39v-10.42h4.36v1.34h-2.46v2.99h1.95v1.34h-1.95v3.44h2.5v1.31h-4.39Z"/>
      <path d="M195.72,48.51c-1.84,0-2.8-1.06-2.89-3.18l1.65-.35c.04,1.38.44,2.07,1.18,2.07.29,0,.5-.09.64-.26.14-.18.21-.41.21-.71s-.05-.55-.16-.8c-.1-.24-.23-.44-.36-.59-.14-.15-.34-.34-.59-.57l-1.37-1.19c-.4-.35-.7-.72-.9-1.1-.2-.38-.3-.85-.3-1.42,0-.81.24-1.44.71-1.89.48-.45,1.13-.68,1.96-.69.38,0,.72.04,1.01.14.29.1.54.23.73.4.19.17.35.37.48.62.13.25.22.5.29.77.06.27.11.56.13.89l-1.62.32c0-.21-.02-.39-.04-.55-.02-.16-.05-.31-.1-.47-.05-.16-.11-.29-.18-.39-.07-.1-.17-.18-.3-.24-.12-.06-.27-.08-.43-.07-.28.02-.5.11-.64.28s-.22.4-.22.68c0,.34.07.61.2.83.13.22.34.45.62.69l1.36,1.18c.23.21.42.4.59.6s.33.41.48.66c.15.25.27.52.35.82s.12.61.12.94c0,.76-.24,1.37-.72,1.85-.48.47-1.11.71-1.89.71Z"/>
    </g>
  </g>
  <g>
    <path class="st1" d="M22.5,16.79c0-.78.6-1.34,1.38-1.33.77.01,1.38.62,1.37,1.37-.01.74-.65,1.38-1.38,1.38-.79,0-1.38-.62-1.38-1.42"/>
    <path class="st0" d="M46.73,8.47c-1.68-2.45-3.47-6.81-6.62-7-4.04.59-5.4,4.3-2.25,7.74,4.68,5.12,6.49,11.97,4.62,18.05-1.88,7.22-10.01,14.21-17.86,14.22-6.08.28-16.3-6.22-13.99-13.78,16.29-5.22,5.71-13.64,11.95-15.43,2.17.05,6.24,5.02,8.24,5.12.81-.02,1,1.08,1.55,1.6,3.68-.02.96,5.16-1.07,6.1-2.06,1.23-4.01.48-6.19.45-3.87-.27-7.83,5.75-4.75,8.54,3.93,3.56,11.32-1.01,14.66-5.12,2.97-3.77,3.38-8.01,2.33-12.32-3.21-11.26-10.47-13.36-17.65-11.91-7.8,1.57-14.85,7.51-16.51,15.55-5.25,25.36,21.92,31.91,33.23,25.29s17.79-24.82,10.31-37.1Z"/>
    <path class="st1" d="M46.95,8.18c-1.3-2.22-2.36-3.99-4.34-6.02-2.43-2.49-6.8-.08-6.69,3.44.09,3.12,3.09,4.62,4.26,7.3,5.65,9.52,1.78,21.13-8.01,26.22-7.46,4.2-16.2,1.83-20.58-5.97-.91-1.53-1.29-3.36-.69-5.25.03-.07.05-.14.21-.18,15.69-4.85,6.29-14.35,11.31-15.1.47-.08.98.11,1.15.2,2.65,1.36,4.56,4.35,7.62,4.9.53.86.3,1.79,2.27,1.61,2.16,4.07-5.74,10.17-9.49,2.28-.46,1.53,1.81,2.71.04,3.29-.12.05-.26.09-.39.14-.16.05-.86.39-1.04.49-7.79,4.69-3.39,15.35,8.26,7.85C44.73,25.95,39.16-.03,18.88,4.03,2.94,7.72-1.31,24.83,4.2,36.43c3.39,7.55,13.46,13.12,21.34,12.55,19.62.16,30.81-24.11,21.41-40.8ZM35.89,45.25c-10.52,5.99-25.32,1.61-30.76-9.35C-.3,24.6,4.63,7.89,20.62,4.86c15.29-2.62,23.88,19.32,9.22,27.73-1.76,1-3.83,1.69-6.21,1.93-5.35.35-3.49-6.64-.19-8.15,2.87-1.1,6.01,1.64,8.72-.55,3.01-1.86,3.98-5.98,2.12-8.92-.25-.43-.56-.51-.99-.46-4.98,1.18-8.05-8.08-12.82-4.4-2.73,2.43.32,6.52-1.67,9.35-1.39,2.31-4.5,3.63-6.88,4.65-.41.16-.51-.03-.57-.36-1.26-5.38-.19-12.31,5.91-13.91.06-.02.12.03.09.06-2.06,2.53-.75,6.25-3.02,8.58,4.53-2.77.24-8.69,8.1-10-10.33-1.93-15.28,7.45-12.22,16.32.05.12-.03.18-.09.25-1.31,2.52-.27,5.64.57,7.02,6.59,10.83,17.39,9.61,24.55,4.5,9.05-6.46,12.8-20.17,2.56-30.64-1.97-2.01-.23-5.57,2.29-5.57,1.26,0,1.99.95,2.35,1.34,10.95,11.91,8.22,33.76-6.54,41.61Z"/>
  </g>
</svg>