<?xml version="1.0" encoding="UTF-8"?>
<svg id="Layer_1" xmlns="http://www.w3.org/2000/svg" version="1.1" viewBox="0 0 80 40">
  <!-- Generator: Adobe Illustrator 29.5.0, SVG Export Plug-In . SVG Version: 2.1.0 Build 137)  -->
  <defs>
    <style>
      .st0 {
        fill: #fff;
      }

      .st1 {
        fill: #eb001b;
      }

      .st2 {
        fill: #ff5f00;
      }

      .st3 {
        fill: #f79e1b;
      }
    </style>
  </defs>
  <rect class="st0" x=".5" y=".25" width="79" height="39.5" rx="7.9" ry="7.9"/>
  <g>
    <rect class="st2" x="33.45" y="8.21" width="13.12" height="23.57"/>
    <path class="st1" d="M34.28,20c0-4.58,2.12-8.95,5.71-11.79-6.5-5.12-15.95-4-21.07,2.54-5.08,6.5-3.96,15.91,2.58,21.03,5.46,4.29,13.08,4.29,18.53,0-3.62-2.83-5.75-7.2-5.75-11.79Z"/>
    <path class="st3" d="M64.27,20c0,8.29-6.71,14.99-14.99,14.99-3.37,0-6.62-1.12-9.25-3.21,6.5-5.12,7.62-14.53,2.5-21.07-.75-.92-1.58-1.79-2.5-2.5,6.5-5.12,15.95-4,21.03,2.54,2.08,2.62,3.21,5.87,3.21,9.25Z"/>
  </g>
</svg>