<?xml version="1.0" encoding="UTF-8"?>
<svg id="Layer_1" xmlns="http://www.w3.org/2000/svg" version="1.1" viewBox="0 0 80 40">
  <!-- Generator: Adobe Illustrator 29.5.0, SVG Export Plug-In . SVG Version: 2.1.0 Build 137)  -->
  <defs>
    <style>
      .st0 {
        fill: #fff;
      }

      .st1 {
        fill: #0080f9;
      }
    </style>
  </defs>
  <rect class="st0" x=".5" y=".25" width="79" height="39.5" rx="7.9" ry="7.9"/>
  <g id="LOGOS">
    <g>
      <path class="st1" d="M41.71,15.21c.52,0,1.04,0,1.56,0,.39,0,.77.03,1.14.13.5.13.96.35,1.37.68.22.18.41.37.57.6.06.09.08.09.16.01.3-.26.63-.49.98-.7.66-.39,1.38-.61,2.13-.7s1.48.03,2.17.35c.27.13.51.31.75.5.39.31.65.7.85,1.14.2.44.31.9.35,1.39.06.62-.04,1.21-.14,1.81-.19,1.05-.38,2.1-.57,3.15-.05.31-.11.62-.17.93-.04.17-.04.17-.21.17h-2.06c-.17,0-.19-.03-.16-.19.16-.92.33-1.84.49-2.76.09-.56.22-1.11.29-1.67.06-.44.04-.88-.15-1.3-.18-.42-.48-.75-.9-.94-.1-.05-.2-.09-.31-.13-.28-.09-.57-.05-.84.04-.53.18-1,.44-1.37.86-.36.4-.58.87-.66,1.41-.06.42-.15.83-.22,1.24-.19,1.07-.39,2.14-.58,3.21-.04.22-.04.22-.27.22h-2.01c-.17,0-.19-.03-.16-.19.09-.49.18-.98.26-1.46.12-.67.24-1.34.36-2.02.05-.31.12-.62.15-.93.05-.45.05-.9-.15-1.32-.33-.7-.87-1.1-1.66-1.12-.51-.02-1.03,0-1.54,0-.38,0-.53.22-.57.48-.09.55-.19,1.1-.29,1.66-.1.57-.2,1.14-.3,1.7-.16.89-.31,1.79-.47,2.68-.02.13-.04.26-.07.4-.02.12-.04.14-.17.14h-2.18c-.06,0-.09-.04-.09-.09,0-.03,0-.06.01-.09.13-.71.25-1.42.37-2.13.25-1.44.51-2.88.76-4.32.09-.49.17-.98.26-1.46.13-.67.53-1.1,1.17-1.32.15-.05.3-.06.46-.06h1.62v-.02Z"/>
      <path class="st1" d="M33.54,23.39s-.09.1-.13.15c-.48.59-1.1.92-1.84,1.06-.75.14-1.47.04-2.17-.22-.74-.28-1.31-.77-1.69-1.47-.3-.55-.41-1.15-.47-1.76-.05-.55.05-1.08.15-1.62.22-1.25.45-2.5.68-3.75.03-.14.05-.28.08-.43.02-.11.04-.12.15-.13h2.23c.11,0,.13.03.11.14-.08.45-.16.9-.24,1.36-.19,1.05-.38,2.09-.56,3.13-.06.34-.08.68,0,1.02.06.28.18.52.39.72.19.18.41.26.66.31.29.06.57,0,.86-.04.55-.09,1.06-.3,1.5-.65.5-.4.84-.91,1.05-1.5.12-.34.16-.69.22-1.03.16-.85.31-1.7.46-2.55.04-.24.09-.48.13-.73.03-.17.04-.18.22-.18h2.13c.17,0,.18.02.15.19-.09.48-.18.97-.26,1.45-.26,1.42-.52,2.85-.78,4.27-.14.78-.27,1.57-.43,2.35-.15.74-.38,1.45-.73,2.13-.27.53-.62,1-1.04,1.41-.61.59-1.34.97-2.16,1.18-.68.17-1.37.22-2.07.18-.48-.03-.96-.12-1.42-.23-.04,0-.07-.02-.11-.04-.1-.04-.12-.07-.1-.18.08-.57.16-1.14.23-1.71.02-.13.03-.26.04-.38.02-.14.05-.17.19-.13.34.09.69.16,1.04.18.64.05,1.28.07,1.9-.16.49-.18.91-.47,1.21-.92.27-.4.41-.85.47-1.33,0-.03.02-.06-.03-.09h0Z"/>
      <path class="st1" d="M23.21,23.6c-.12.1-.22.19-.33.29-.51.45-1.11.69-1.77.79-.25.04-.5.02-.75,0-.48-.04-.94-.14-1.38-.34-.62-.28-1.14-.68-1.53-1.25-.29-.43-.51-.88-.62-1.38-.11-.5-.12-1.01-.06-1.53.13-1.1.61-2.04,1.31-2.87.72-.86,1.63-1.47,2.7-1.83.57-.19,1.14-.27,1.73-.27h2.55c.22,0,.45.01.66.08.39.11.68.36.89.69.23.36.27.75.2,1.17-.18.98-.35,1.95-.52,2.93-.21,1.2-.43,2.41-.64,3.61-.05.27-.09.53-.14.8q-.04.2-.25.2h-2.01c-.2,0-.21,0-.18-.21.04-.25.09-.5.13-.75,0-.04.03-.07,0-.13h0ZM19.19,20.42v.19c.03.45.19.84.52,1.15.38.36.84.51,1.35.51.56,0,1.07-.15,1.55-.45.6-.39,1.01-.92,1.2-1.6.16-.56.23-1.14.31-1.72.08-.54-.39-.88-.77-.86-.51.02-1.01,0-1.52,0-.08,0-.15,0-.22.02-.47.07-.89.25-1.28.53-.74.55-1.13,1.29-1.14,2.22h0Z"/>
      <path class="st1" d="M58.63,24.57c-.48.02-.92-.04-1.36-.17-.64-.18-1.22-.48-1.68-.97-.56-.59-.93-1.28-1.05-2.1-.13-.87.02-1.69.36-2.48.31-.7.74-1.32,1.3-1.85.61-.57,1.29-1.01,2.08-1.3.67-.25,1.36-.38,2.07-.36,1.06.02,2,.36,2.81,1.06.35.3.61.68.8,1.09.22.46.35.95.38,1.46.06.93-.17,1.8-.62,2.6-.84,1.46-2.09,2.4-3.71,2.85-.46.13-.93.21-1.39.18h0ZM59.81,17.71c-.48,0-.96.12-1.4.37-.44.25-.79.6-1.05,1.04-.24.4-.36.84-.36,1.3,0,.57.22,1.04.68,1.38.48.36,1.03.44,1.6.41.4-.02.78-.14,1.13-.35.97-.57,1.5-1.41,1.43-2.56-.03-.5-.28-.91-.68-1.2-.39-.28-.83-.4-1.34-.4h0Z"/>
      <path class="st1" d="M9.88,22.28h2.66c.24,0,.25.01.2.25-.08.41-.23.79-.48,1.12-.34.46-.8.75-1.35.89-.33.09-.66.15-1,.15h-3.15q-.22,0-.26.22c-.16.88-.31,1.76-.47,2.63-.04.2-.07.4-.11.6-.03.14-.05.16-.19.16h-2.07c-.16,0-.18-.03-.16-.19.16-.92.33-1.84.49-2.76.26-1.49.53-2.99.79-4.48.1-.57.21-1.14.31-1.72.13-.73.24-1.46.39-2.19.13-.63.49-1.1,1.04-1.43.4-.24.82-.32,1.28-.33h.31c.11,0,.13.03.12.14-.03.18-.07.37-.1.55-.14.76-.27,1.52-.41,2.29-.09.53-.19,1.06-.28,1.59-.14.78-.28,1.55-.42,2.33v.09s0,.07.05.08c.05,0,.11,0,.16,0h2.67Z"/>
      <path class="st1" d="M67.41,24.7h-2.86c-.2,0-.21,0-.18-.21.08-.46.17-.92.25-1.39.16-.89.31-1.79.47-2.68.18-1.03.37-2.07.55-3.1.21-1.17.41-2.34.62-3.52.02-.1.04-.21.06-.31.16-.81.64-1.37,1.38-1.71.24-.11.51-.13.77-.15.16-.01.32,0,.48,0,.14,0,.15.03.13.17-.13.69-.25,1.39-.37,2.08-.16.89-.32,1.77-.48,2.66-.21,1.15-.41,2.3-.62,3.45-.12.69-.25,1.37-.37,2.07-.04.24-.04.24.2.24h5.28c.27,0,.28,0,.22.27-.17.75-.54,1.36-1.23,1.76-.18.1-.38.18-.58.23-.33.09-.67.15-1.01.15h-2.72Z"/>
      <path class="st1" d="M70.96,17.65h-2.41c-.27,0-.28,0-.22-.27.18-.85.62-1.5,1.41-1.89.3-.14.62-.22.96-.25.23-.02.46-.02.69-.02h3.19c.23,0,.46.02.68.07.72.16,1.22.74,1.25,1.49,0,.22,0,.43-.04.64-.17,1.1-.34,2.2-.5,3.3-.09.63-.34,1.2-.77,1.67-.31.33-.68.57-1.1.73-.27.1-.56.19-.84.29-.04.01-.07.02-.11.03-.04,0-.07-.02-.07-.07,0-.03,0-.06.01-.09.14-.84.29-1.68.44-2.52.13-.75.26-1.49.39-2.24.02-.14.03-.28.01-.41-.02-.24-.21-.42-.45-.45-.06,0-.12,0-.18,0h-2.36,0Z"/>
      <path class="st1" d="M10.75,17.65h-2.42c-.24,0-.26-.01-.22-.24.2-1.03.86-1.86,1.97-2.1.28-.06.57-.09.86-.09h3.43c.26,0,.51.03.76.09.66.17,1.13.72,1.17,1.44.02.39-.05.76-.11,1.14-.13.9-.28,1.8-.4,2.71-.07.47-.19.91-.44,1.31-.35.57-.84,1-1.49,1.23-.24.09-.48.17-.73.25-.04.01-.07.02-.11.04-.14.04-.17.02-.14-.12.03-.15.05-.31.08-.46.15-.87.31-1.74.46-2.62.11-.62.21-1.24.32-1.86.02-.12.02-.23-.01-.35-.07-.21-.22-.34-.44-.36-.05,0-.11,0-.16,0h-2.38Z"/>
    </g>
  </g>
</svg>