<?xml version="1.0" encoding="UTF-8"?>
<svg id="Layer_1" xmlns="http://www.w3.org/2000/svg" version="1.1" viewBox="0 0 80 40">
  <!-- Generator: Adobe Illustrator 29.5.0, SVG Export Plug-In . SVG Version: 2.1.0 Build 137)  -->
  <defs>
    <style>
      .st0 {
        fill: #003087;
      }

      .st1 {
        fill: #fff;
      }

      .st2 {
        fill: #009cde;
      }

      .st3 {
        fill: #012169;
      }
    </style>
  </defs>
  <rect class="st1" x=".5" y=".25" width="79" height="39.5" rx="7.9" ry="7.9"/>
  <g>
    <g>
      <path class="st2" d="M59.98,15.04h-4.07c-.28,0-.51.2-.56.48l-1.64,10.43c-.03.21.13.39.33.39h2.09c.19,0,.36-.14.39-.33l.47-2.96c.04-.27.28-.48.56-.48h1.29c2.68,0,4.23-1.3,4.63-3.87.18-1.12,0-2.01-.52-2.63-.58-.68-1.6-1.04-2.96-1.04ZM60.45,18.85c-.22,1.46-1.34,1.46-2.42,1.46h-.61l.43-2.73c.03-.16.17-.29.33-.29h.28c.73,0,1.43,0,1.79.42.21.25.28.62.2,1.13Z"/>
      <path class="st0" d="M30.97,15.04h-4.07c-.28,0-.51.2-.56.48l-1.64,10.43c-.03.21.13.39.33.39h1.94c.28,0,.51-.2.56-.48l.44-2.81c.04-.27.28-.48.56-.48h1.29c2.68,0,4.23-1.3,4.63-3.87.18-1.12,0-2.01-.52-2.63-.58-.68-1.6-1.04-2.96-1.04ZM31.44,18.85c-.22,1.46-1.34,1.46-2.42,1.46h-.61l.43-2.73c.03-.16.17-.29.33-.29h.28c.73,0,1.43,0,1.79.42.21.25.28.62.2,1.13Z"/>
      <path class="st0" d="M43.13,18.8h-1.95c-.17,0-.31.12-.33.29l-.09.54-.14-.2c-.42-.61-1.36-.82-2.3-.82-2.15,0-3.99,1.63-4.35,3.92-.19,1.14.08,2.23.73,2.99.59.7,1.44.99,2.45.99,1.73,0,2.7-1.11,2.7-1.11l-.09.54c-.03.21.13.39.33.39h1.75c.28,0,.51-.2.56-.48l1.05-6.67c.03-.21-.13-.39-.33-.39ZM40.41,22.59c-.19,1.11-1.07,1.86-2.2,1.86-.56,0-1.02-.18-1.31-.53-.29-.34-.4-.83-.31-1.37.18-1.1,1.07-1.87,2.18-1.87.55,0,1,.18,1.3.53.3.35.42.84.33,1.38Z"/>
      <path class="st2" d="M72.14,18.8h-1.95c-.17,0-.31.12-.33.29l-.09.54-.14-.2c-.42-.61-1.36-.82-2.3-.82-2.15,0-3.99,1.63-4.35,3.92-.19,1.14.08,2.23.73,2.99.59.7,1.44.99,2.45.99,1.73,0,2.7-1.11,2.7-1.11l-.09.54c-.03.21.13.39.33.39h1.75c.28,0,.51-.2.56-.48l1.05-6.67c.03-.21-.13-.39-.33-.39ZM69.42,22.59c-.19,1.11-1.07,1.86-2.2,1.86-.56,0-1.02-.18-1.31-.53-.29-.34-.4-.83-.31-1.37.18-1.1,1.07-1.87,2.18-1.87.55,0,1,.18,1.3.53.3.35.42.84.33,1.38Z"/>
      <path class="st0" d="M53.5,18.8h-1.96c-.19,0-.36.09-.47.25l-2.7,3.98-1.14-3.82c-.07-.24-.29-.4-.54-.4h-1.92c-.23,0-.4.23-.32.45l2.16,6.33-2.03,2.86c-.16.22,0,.54.28.54h1.96c.19,0,.36-.09.46-.24l6.51-9.4c.16-.22,0-.53-.28-.53Z"/>
      <path class="st2" d="M74.43,15.33l-1.67,10.62c-.03.21.13.39.33.39h1.68c.28,0,.51-.2.56-.48l1.65-10.43c.03-.21-.13-.39-.33-.39h-1.88c-.17,0-.31.12-.33.29Z"/>
    </g>
    <g>
      <path class="st2" d="M20.08,13.67c.26-1.66,0-2.79-.9-3.81-.99-1.12-2.77-1.61-5.05-1.61h-6.62c-.47,0-.86.34-.94.8l-2.76,17.49c-.05.35.21.66.56.66h4.09l-.28,1.79c-.05.3.19.57.49.57h3.45c.41,0,.76-.3.82-.7l.03-.18.65-4.12.04-.23c.06-.4.41-.7.82-.7h.52c3.34,0,5.95-1.36,6.72-5.28.32-1.64.15-3.01-.69-3.97-.26-.29-.57-.53-.94-.73h0"/>
      <path class="st3" d="M20.08,13.67c.26-1.66,0-2.79-.9-3.81-.99-1.12-2.77-1.61-5.05-1.61h-6.62c-.47,0-.86.34-.94.8l-2.76,17.49c-.05.35.21.66.56.66h4.09l1.03-6.51-.03.2c.07-.46.47-.8.93-.8h1.94c3.82,0,6.8-1.55,7.68-6.03.03-.13.05-.26.07-.39"/>
      <path class="st0" d="M10.59,13.69c.04-.28.22-.5.46-.62.11-.05.23-.08.36-.08h5.19c.61,0,1.19.04,1.71.12.15.02.3.05.44.08s.28.07.41.11c.07.02.13.04.2.06.26.09.5.19.72.3.26-1.66,0-2.79-.9-3.81-.99-1.12-2.77-1.61-5.05-1.61h-6.62c-.47,0-.86.34-.94.8l-2.76,17.49c-.05.35.21.66.56.66h4.09l1.03-6.51,1.1-7Z"/>
    </g>
  </g>
</svg>