<?xml version="1.0" encoding="UTF-8"?>
<svg id="Layer_1" xmlns="http://www.w3.org/2000/svg" version="1.1" viewBox="0 0 80 40">
  <!-- Generator: Adobe Illustrator 29.5.0, SVG Export Plug-In . SVG Version: 2.1.0 Build 137)  -->
  <defs>
    <style>
      .st0 {
        fill: #d3f0e4;
      }
    </style>
  </defs>
  <rect class="st0" x=".5" y=".25" width="79" height="39.5" rx="7.9" ry="7.9"/>
  <g>
    <path d="M52.28,24.72v-7.17c0-1.13-.59-1.48-.65-1.54-1.09-1.11-3.45.11-3.45,1.54v7.17h-2.63v-6.59c0-1.57-1.43-3.3-3.1-2.22-.3.19-1,1.36-1,1.63v7.17h-2.93v-10.98c0-.88,1.25-.77,2.07-.35.39.2.55.8.69.8.69-.04,1.12-.74,1.79-.87,1.71-.33,3.34.01,4.38,1.45,1.98-2.66,6.91-1.85,7.45,1.63.18,1.19.23,6.47.02,7.59-.06.33-.1.63-.48.73h-2.16Z"/>
    <path d="M14.38,13.33c-.87.14-1.42.87-2.34.85-1.03-.02-1.1-1.36-2.51-.87v16.39h2.63v-5.56c1.8.56,2.98,1.27,4.99.74,4.71-1.24,4.93-12.81-2.77-11.55ZM14.5,22.55c-2.83-.89-2.7-6.25-.07-6.84,5.12-1.15,4.55,8.24.07,6.84Z"/>
    <path d="M23.91,20.16c.64,4.94,6.78,6.09,9.92,2.66l-1.65-1.58c-2.16,1.49-4.85,1.79-5.67-1.2l7.56-.34c1.31-8.81-11.35-8.71-10.17.46ZM26.51,17.7c.48-2.98,5-3.08,4.98,0h-4.98Z"/>
    <path d="M63.32,13.38c-2.16.37-3.82,2.64-4.02,4.76-.77,8.15,10.2,8.88,11.1,1.73.57-4.53-2.69-7.24-7.08-6.49ZM65.43,22.5c-.29.07-.58.08-.85.04-1.82-.15-3.25-1.66-3.25-3.52,0-1.95,1.58-3.54,3.54-3.54s3.54,1.58,3.54,3.54c0,1.76-1.29,3.21-2.97,3.49Z"/>
  </g>
</svg>