<?xml version="1.0" encoding="UTF-8"?>
<svg id="Layer_1" xmlns="http://www.w3.org/2000/svg" version="1.1" xmlns:xlink="http://www.w3.org/1999/xlink" viewBox="0 0 80 40">
  <!-- Generator: Adobe Illustrator 29.5.0, SVG Export Plug-In . SVG Version: 2.1.0 Build 137)  -->
  <defs>
    <style>
      .st0 {
        fill: #292929;
      }

      .st1 {
        fill: url(#linear-gradient);
      }
    </style>
    <linearGradient id="linear-gradient" x1=".5" y1="20" x2="79.5" y2="20" gradientUnits="userSpaceOnUse">
      <stop offset="0" stop-color="#3bff9d"/>
      <stop offset="1" stop-color="#3bffc8"/>
    </linearGradient>
  </defs>
  <rect class="st1" x=".5" y=".25" width="79" height="39.5" rx="7.9" ry="7.9"/>
  <g>
    <polygon class="st0" points="70 13.7 65.61 30.46 65.59 30.5 69.02 30.5 73.42 13.7 70 13.7"/>
    <path class="st0" d="M15.67,23.24c-.45.24-1.07.38-1.65.38-1.23,0-1.93-.2-2-1.19h0v-.07s0-.08,0-.12v-3.24s0-2.04,0-2.04h0v-1.22s0-1.97,0-1.97l-3.06.4c2.07-.4,3.25-2.04,3.25-3.66v-1h-3.43v4.69l-.2.06v8.69c.12,2.44,1.72,3.89,4.36,3.89.94,0,1.96-.21,2.75-.57h.02v-3.06l-.04.03Z"/>
    <polygon class="st0" points="16.21 13.07 6.58 14.55 6.58 16.99 16.21 15.51 16.21 13.07"/>
    <polygon class="st0" points="16.21 16.64 6.58 18.13 6.58 20.46 16.21 18.97 16.21 16.64"/>
    <path class="st0" d="M27.01,17.77c-.14-2.71-1.83-4.32-4.59-4.32-1.59,0-2.9.62-3.79,1.77-.89,1.16-1.36,2.86-1.36,4.92s.47,3.77,1.36,4.92c.89,1.16,2.2,1.77,3.79,1.77,2.76,0,4.46-1.62,4.59-4.35v4.09h3.43v-12.86l-3.43.53M27.19,20.14c0,2.41-1.27,3.96-3.21,3.96s-3.21-1.48-3.21-3.96,1.2-3.98,3.21-3.98c.98,0,1.8.38,2.37,1.1.55.72.85,1.71.85,2.88Z"/>
    <g>
      <path class="st0" d="M40.46,13.45c-2.77,0-4.46,1.61-4.59,4.33v-7.79l-3.43.53v16.07h3.43v-4.09c.13,2.73,1.83,4.35,4.59,4.35,3.24,0,5.17-2.51,5.17-6.69s-1.93-6.7-5.17-6.7ZM38.9,24.1c-1.96,0-3.21-1.55-3.21-3.96,0-1.17.3-2.17.85-2.88.57-.72,1.39-1.1,2.37-1.1,2.01,0,3.21,1.49,3.21,3.98s-1.2,3.95-3.21,3.95Z"/>
      <path class="st0" d="M54.97,13.45c-2.77,0-4.46,1.61-4.59,4.33v-7.79l-3.43.53v16.07h3.43v-4.09c.13,2.73,1.83,4.35,4.59,4.35,3.24,0,5.17-2.51,5.17-6.69s-1.93-6.7-5.17-6.7ZM53.41,24.1c-1.96,0-3.21-1.55-3.21-3.96,0-1.17.3-2.17.85-2.88.57-.72,1.39-1.1,2.37-1.1,2.01,0,3.21,1.49,3.21,3.98s-1.2,3.95-3.21,3.95Z"/>
    </g>
    <polygon class="st0" points="60.14 13.7 63.8 13.7 66.79 26.56 63.5 26.56 60.14 13.7"/>
  </g>
</svg>