<?xml version="1.0" encoding="UTF-8"?>
<svg id="Layer_1" xmlns="http://www.w3.org/2000/svg" version="1.1" viewBox="0 0 80 40">
  <!-- Generator: Adobe Illustrator 29.5.0, SVG Export Plug-In . SVG Version: 2.1.0 Build 137)  -->
  <defs>
    <style>
      .st0 {
        fill: #1434cb;
      }

      .st1 {
        fill: #fff;
      }
    </style>
  </defs>
  <rect class="st1" x=".5" y=".25" width="79" height="39.5" rx="7.9" ry="7.9"/>
  <g>
    <path class="st0" d="M18.23,30.12l-4.16-16.12c-.26-.99-.48-1.36-1.24-1.78-1.26-.68-3.33-1.32-5.16-1.72l.13-.59h8.89c1.13,0,2.15.76,2.41,2.06l2.2,11.69,5.44-13.75h5.49l-8.46,20.2h-5.53Z"/>
    <polygon class="st0" points="30.14 30.12 34.46 9.92 39.69 9.92 35.36 30.12 30.14 30.12"/>
    <path class="st0" d="M44.76,30.44c-2.34-.03-4.59-.51-5.81-1.07l.95-4.43c1.22.57,2.74,1.32,5.37,1.28,1.5-.03,3.11-.62,3.13-1.98,0-.89-.67-1.52-2.71-2.51-1.98-.97-4.61-2.59-4.58-5.5.03-3.93,3.67-6.68,8.83-6.68,2.01,0,3.63.44,4.89.89l-.92,4.28c-2.34-1.07-4.4-1-5.15-.9-1.51.19-2.2.96-2.21,1.69-.05,2.38,7.34,2.67,7.32,8-.02,4.2-3.61,6.92-9.1,6.92Z"/>
    <path class="st0" d="M68.11,9.92h-4.46c-1,0-1.85.59-2.22,1.48l-7.84,18.72h5.48l1.09-3.02h6.71l.63,3.02h0s4.83,0,4.83,0l-4.22-20.2ZM61.67,22.97l2.75-7.58,1.58,7.58h-4.33Z"/>
  </g>
</svg>